<mxfile host="app.diagrams.net" modified="2021-05-18T09:58:41.845Z" agent="5.0 (Macintosh; Intel Mac OS X 10_15_4) AppleWebKit/537.36 (KHTML, like Gecko) Chrome/90.0.4430.212 Safari/537.36" etag="io8P-t-b8NqUPhlYH10l" version="14.6.13" type="github" pages="5">
  <diagram id="6k1DSPhuUvyQpMTDsVGk" name="Full Flow">
    <mxGraphModel dx="1374" dy="771" grid="1" gridSize="10" guides="1" tooltips="1" connect="1" arrows="1" fold="1" page="1" pageScale="1" pageWidth="850" pageHeight="1100" math="0" shadow="0">
      <root>
        <mxCell id="9joBJKQd-rOn2Y1OiS3Y-0" />
        <mxCell id="9joBJKQd-rOn2Y1OiS3Y-1" parent="9joBJKQd-rOn2Y1OiS3Y-0" />
        <mxCell id="lL3YZRBRJESwgtEOn3cI-30" value="" style="endArrow=none;html=1;strokeWidth=4;" edge="1" parent="9joBJKQd-rOn2Y1OiS3Y-1">
          <mxGeometry width="50" height="50" relative="1" as="geometry">
            <mxPoint x="211" y="205" as="sourcePoint" />
            <mxPoint x="360" y="240" as="targetPoint" />
          </mxGeometry>
        </mxCell>
        <UserObject label="Example diagram for a workflow similar to &quot;Git-flow&quot; :" link="https://nvie.com/posts/a-successful-git-branching-model/" id="M-WdRbuzmmu0NIIwUPCY-0">
          <mxCell style="text;whiteSpace=wrap;html=1;fontStyle=1;fontSize=16;" vertex="1" parent="9joBJKQd-rOn2Y1OiS3Y-1">
            <mxGeometry x="55" y="50" width="427.75" height="20" as="geometry" />
          </mxCell>
        </UserObject>
        <mxCell id="GEHwFGbjq7uVDoPxz72W-0" value="master" style="text;html=1;strokeColor=none;fillColor=none;align=center;verticalAlign=middle;whiteSpace=wrap;overflow=hidden;fontSize=14;fontStyle=1;fontFamily=Courier New;" vertex="1" parent="9joBJKQd-rOn2Y1OiS3Y-1">
          <mxGeometry x="75" y="97" width="50" height="42" as="geometry" />
        </mxCell>
        <mxCell id="GEHwFGbjq7uVDoPxz72W-1" value="staging" style="text;html=1;strokeColor=none;fillColor=none;align=center;verticalAlign=middle;whiteSpace=wrap;overflow=hidden;fontSize=14;fontStyle=1;fontFamily=Courier New;" vertex="1" parent="9joBJKQd-rOn2Y1OiS3Y-1">
          <mxGeometry x="166" y="97" width="60" height="42" as="geometry" />
        </mxCell>
        <mxCell id="GEHwFGbjq7uVDoPxz72W-2" value="int" style="text;html=1;strokeColor=none;fillColor=none;align=center;verticalAlign=middle;whiteSpace=wrap;overflow=hidden;fontSize=14;fontStyle=1;fontFamily=Courier New;" vertex="1" parent="9joBJKQd-rOn2Y1OiS3Y-1">
          <mxGeometry x="520" y="97" width="60" height="42" as="geometry" />
        </mxCell>
        <mxCell id="GEHwFGbjq7uVDoPxz72W-3" value="dev" style="text;html=1;strokeColor=none;fillColor=none;align=center;verticalAlign=middle;whiteSpace=wrap;overflow=hidden;fontSize=14;fontStyle=1;fontFamily=Courier New;" vertex="1" parent="9joBJKQd-rOn2Y1OiS3Y-1">
          <mxGeometry x="695" y="97" width="60" height="42" as="geometry" />
        </mxCell>
        <mxCell id="GEHwFGbjq7uVDoPxz72W-4" style="edgeStyle=orthogonalEdgeStyle;rounded=0;orthogonalLoop=1;jettySize=auto;html=1;exitX=0;exitY=0.5;exitDx=0;exitDy=0;entryX=0;entryY=0.25;entryDx=0;entryDy=0;" edge="1" parent="9joBJKQd-rOn2Y1OiS3Y-1" source="GEHwFGbjq7uVDoPxz72W-0" target="GEHwFGbjq7uVDoPxz72W-0">
          <mxGeometry relative="1" as="geometry" />
        </mxCell>
        <mxCell id="GNp4MWEnsKg8f4H0Tl2q-0" value="" style="edgeStyle=orthogonalEdgeStyle;rounded=0;html=1;jettySize=auto;orthogonalLoop=1;strokeWidth=4;endArrow=none;endFill=0;" edge="1" parent="9joBJKQd-rOn2Y1OiS3Y-1">
          <mxGeometry x="141.75" y="130" as="geometry">
            <mxPoint x="99.5" y="130" as="sourcePoint" />
            <mxPoint x="100" y="170" as="targetPoint" />
            <Array as="points">
              <mxPoint x="99.5" y="160" />
              <mxPoint x="99.5" y="160" />
            </Array>
          </mxGeometry>
        </mxCell>
        <mxCell id="3OcxsjpG-39zrzZq8Fx0-0" value="" style="verticalLabelPosition=bottom;verticalAlign=top;html=1;strokeWidth=4;shape=mxgraph.flowchart.on-page_reference;plain-blue;gradientColor=none;fillColor=#B5E3Fe;strokeColor=#000000;" vertex="1" parent="9joBJKQd-rOn2Y1OiS3Y-1">
          <mxGeometry x="85" y="140" width="30" height="30" as="geometry" />
        </mxCell>
        <mxCell id="ttuRU3yAyFg3AtFoFFeX-0" value="Tag: 2.0.2" style="text;html=1;strokeColor=none;fillColor=none;align=center;verticalAlign=middle;whiteSpace=wrap;overflow=hidden;fontSize=14;" vertex="1" parent="9joBJKQd-rOn2Y1OiS3Y-1">
          <mxGeometry x="5" y="145" width="70" height="20" as="geometry" />
        </mxCell>
        <mxCell id="nUZe2qjVlv_fKB2sZt_X-1" value="" style="edgeStyle=orthogonalEdgeStyle;rounded=0;html=1;jettySize=auto;orthogonalLoop=1;strokeWidth=4;endArrow=none;endFill=0;" edge="1" parent="9joBJKQd-rOn2Y1OiS3Y-1">
          <mxGeometry x="237.75" y="130" as="geometry">
            <mxPoint x="195.5" y="130" as="sourcePoint" />
            <mxPoint x="196" y="200" as="targetPoint" />
            <Array as="points">
              <mxPoint x="195.5" y="160" />
              <mxPoint x="195.5" y="160" />
            </Array>
          </mxGeometry>
        </mxCell>
        <mxCell id="mQZE2rUnRf_W8dbM8bOv-0" value="" style="verticalLabelPosition=bottom;verticalAlign=top;html=1;strokeWidth=4;shape=mxgraph.flowchart.on-page_reference;plain-purple;gradientColor=none;strokeColor=#000000;fillColor=#D5E8D4;" vertex="1" parent="9joBJKQd-rOn2Y1OiS3Y-1">
          <mxGeometry x="181" y="190" width="30" height="30" as="geometry" />
        </mxCell>
        <mxCell id="DABpICTYzvp1_hFNQt7c-0" style="edgeStyle=orthogonalEdgeStyle;curved=1;rounded=0;orthogonalLoop=1;jettySize=auto;html=1;exitX=1;exitY=0.5;exitDx=0;exitDy=0;exitPerimeter=0;entryX=0;entryY=0.5;entryDx=0;entryDy=0;entryPerimeter=0;endArrow=none;endFill=0;strokeWidth=4;fontFamily=Courier New;fontColor=#009900;" edge="1" parent="9joBJKQd-rOn2Y1OiS3Y-1" target="mQZE2rUnRf_W8dbM8bOv-0">
          <mxGeometry relative="1" as="geometry">
            <mxPoint x="115" y="160" as="sourcePoint" />
            <mxPoint x="169" y="239" as="targetPoint" />
            <Array as="points">
              <mxPoint x="140" y="160" />
              <mxPoint x="140" y="205" />
            </Array>
          </mxGeometry>
        </mxCell>
        <mxCell id="DABpICTYzvp1_hFNQt7c-2" value="" style="edgeStyle=orthogonalEdgeStyle;rounded=0;html=1;jettySize=auto;orthogonalLoop=1;strokeWidth=4;endArrow=none;endFill=0;" edge="1" parent="9joBJKQd-rOn2Y1OiS3Y-1">
          <mxGeometry x="141.75" y="170" as="geometry">
            <mxPoint x="99.5" y="170" as="sourcePoint" />
            <mxPoint x="100" y="1090" as="targetPoint" />
            <Array as="points">
              <mxPoint x="100" y="230" />
              <mxPoint x="100" y="230" />
            </Array>
          </mxGeometry>
        </mxCell>
        <mxCell id="DABpICTYzvp1_hFNQt7c-3" value="" style="edgeStyle=orthogonalEdgeStyle;rounded=0;html=1;jettySize=auto;orthogonalLoop=1;strokeWidth=4;endArrow=none;endFill=0;startArrow=none;" edge="1" parent="9joBJKQd-rOn2Y1OiS3Y-1" source="lL3YZRBRJESwgtEOn3cI-50">
          <mxGeometry x="237.75" y="220" as="geometry">
            <mxPoint x="195.5" y="220" as="sourcePoint" />
            <mxPoint x="195" y="1090" as="targetPoint" />
            <Array as="points" />
          </mxGeometry>
        </mxCell>
        <mxCell id="lL3YZRBRJESwgtEOn3cI-2" value="" style="endArrow=none;html=1;entryX=1;entryY=0.5;entryDx=0;entryDy=0;entryPerimeter=0;strokeWidth=4;" edge="1" parent="9joBJKQd-rOn2Y1OiS3Y-1" target="mQZE2rUnRf_W8dbM8bOv-0">
          <mxGeometry width="50" height="50" relative="1" as="geometry">
            <mxPoint x="269" y="230" as="sourcePoint" />
            <mxPoint x="450" y="370" as="targetPoint" />
          </mxGeometry>
        </mxCell>
        <mxCell id="lL3YZRBRJESwgtEOn3cI-3" value="ACD-1" style="text;html=1;strokeColor=none;fillColor=none;align=center;verticalAlign=middle;whiteSpace=wrap;overflow=hidden;fontSize=14;fontStyle=1;fontFamily=Courier New;" vertex="1" parent="9joBJKQd-rOn2Y1OiS3Y-1">
          <mxGeometry x="243.87" y="170" width="50" height="42" as="geometry" />
        </mxCell>
        <mxCell id="lL3YZRBRJESwgtEOn3cI-4" value="" style="edgeStyle=orthogonalEdgeStyle;rounded=0;html=1;jettySize=auto;orthogonalLoop=1;strokeWidth=4;endArrow=none;endFill=0;startArrow=none;" edge="1" parent="9joBJKQd-rOn2Y1OiS3Y-1" source="lL3YZRBRJESwgtEOn3cI-17">
          <mxGeometry x="310.63" y="238" as="geometry">
            <mxPoint x="268.38" y="238" as="sourcePoint" />
            <mxPoint x="269" y="420" as="targetPoint" />
            <Array as="points">
              <mxPoint x="268.88" y="298" />
              <mxPoint x="268.88" y="298" />
            </Array>
          </mxGeometry>
        </mxCell>
        <mxCell id="lL3YZRBRJESwgtEOn3cI-5" value="" style="edgeStyle=orthogonalEdgeStyle;rounded=0;html=1;jettySize=auto;orthogonalLoop=1;strokeWidth=4;endArrow=none;endFill=0;startArrow=none;" edge="1" parent="9joBJKQd-rOn2Y1OiS3Y-1" source="lL3YZRBRJESwgtEOn3cI-19">
          <mxGeometry x="766.75" y="139" as="geometry">
            <mxPoint x="724.5" y="139" as="sourcePoint" />
            <mxPoint x="725" y="1090" as="targetPoint" />
            <Array as="points">
              <mxPoint x="725" y="199" />
              <mxPoint x="725" y="199" />
            </Array>
          </mxGeometry>
        </mxCell>
        <mxCell id="lL3YZRBRJESwgtEOn3cI-6" value="" style="edgeStyle=orthogonalEdgeStyle;rounded=0;html=1;jettySize=auto;orthogonalLoop=1;strokeWidth=4;endArrow=none;endFill=0;startArrow=none;" edge="1" parent="9joBJKQd-rOn2Y1OiS3Y-1" source="lL3YZRBRJESwgtEOn3cI-11">
          <mxGeometry x="592.25" y="139" as="geometry">
            <mxPoint x="550" y="139" as="sourcePoint" />
            <mxPoint x="551" y="1090" as="targetPoint" />
            <Array as="points">
              <mxPoint x="550.5" y="199" />
              <mxPoint x="550.5" y="199" />
            </Array>
          </mxGeometry>
        </mxCell>
        <mxCell id="lL3YZRBRJESwgtEOn3cI-17" value="" style="verticalLabelPosition=bottom;verticalAlign=top;html=1;strokeWidth=4;shape=mxgraph.flowchart.on-page_reference;plain-purple;gradientColor=none;strokeColor=#000000;fillColor=#D5E8D4;" vertex="1" parent="9joBJKQd-rOn2Y1OiS3Y-1">
          <mxGeometry x="255.88" y="550" width="30" height="30" as="geometry" />
        </mxCell>
        <mxCell id="lL3YZRBRJESwgtEOn3cI-19" value="" style="verticalLabelPosition=bottom;verticalAlign=top;html=1;strokeWidth=4;shape=mxgraph.flowchart.on-page_reference;plain-purple;gradientColor=none;strokeColor=#000000;fillColor=#D5E8D4;" vertex="1" parent="9joBJKQd-rOn2Y1OiS3Y-1">
          <mxGeometry x="710" y="610" width="30" height="30" as="geometry" />
        </mxCell>
        <mxCell id="lL3YZRBRJESwgtEOn3cI-20" value="" style="edgeStyle=orthogonalEdgeStyle;rounded=0;html=1;jettySize=auto;orthogonalLoop=1;strokeWidth=4;endArrow=none;endFill=0;" edge="1" parent="9joBJKQd-rOn2Y1OiS3Y-1" target="lL3YZRBRJESwgtEOn3cI-19">
          <mxGeometry x="766.75" y="139" as="geometry">
            <mxPoint x="724.5" y="139" as="sourcePoint" />
            <mxPoint x="725" y="979" as="targetPoint" />
            <Array as="points" />
          </mxGeometry>
        </mxCell>
        <mxCell id="lL3YZRBRJESwgtEOn3cI-7" value="" style="verticalLabelPosition=bottom;verticalAlign=top;html=1;strokeWidth=4;shape=mxgraph.flowchart.on-page_reference;plain-purple;gradientColor=none;strokeColor=#000000;fillColor=#D5E8D4;" vertex="1" parent="9joBJKQd-rOn2Y1OiS3Y-1">
          <mxGeometry x="710" y="380" width="30" height="30" as="geometry" />
        </mxCell>
        <mxCell id="lL3YZRBRJESwgtEOn3cI-22" value="ACD-1 C1&amp;nbsp;" style="text;html=1;strokeColor=none;fillColor=none;align=center;verticalAlign=middle;whiteSpace=wrap;overflow=hidden;fontSize=14;fontStyle=1;fontFamily=Courier New;" vertex="1" parent="9joBJKQd-rOn2Y1OiS3Y-1">
          <mxGeometry x="280" y="270" width="80" height="42" as="geometry" />
        </mxCell>
        <mxCell id="lL3YZRBRJESwgtEOn3cI-23" value="ACD-1 C2" style="text;html=1;strokeColor=none;fillColor=none;align=center;verticalAlign=middle;whiteSpace=wrap;overflow=hidden;fontSize=14;fontStyle=1;fontFamily=Courier New;" vertex="1" parent="9joBJKQd-rOn2Y1OiS3Y-1">
          <mxGeometry x="245.88" y="572" width="70" height="42" as="geometry" />
        </mxCell>
        <mxCell id="lL3YZRBRJESwgtEOn3cI-24" value="" style="verticalLabelPosition=bottom;verticalAlign=top;html=1;strokeWidth=4;shape=mxgraph.flowchart.on-page_reference;plain-purple;gradientColor=none;strokeColor=#000000;fillColor=#D5E8D4;" vertex="1" parent="9joBJKQd-rOn2Y1OiS3Y-1">
          <mxGeometry x="180" y="630" width="30" height="30" as="geometry" />
        </mxCell>
        <mxCell id="lL3YZRBRJESwgtEOn3cI-25" value="" style="endArrow=classic;html=1;strokeWidth=4;" edge="1" parent="9joBJKQd-rOn2Y1OiS3Y-1">
          <mxGeometry width="50" height="50" relative="1" as="geometry">
            <mxPoint x="269" y="229" as="sourcePoint" />
            <mxPoint x="269" y="288" as="targetPoint" />
          </mxGeometry>
        </mxCell>
        <mxCell id="lL3YZRBRJESwgtEOn3cI-26" value="" style="endArrow=classic;html=1;strokeWidth=4;entryX=0;entryY=0.5;entryDx=0;entryDy=0;entryPerimeter=0;exitX=1;exitY=0.5;exitDx=0;exitDy=0;exitPerimeter=0;" edge="1" parent="9joBJKQd-rOn2Y1OiS3Y-1" source="lL3YZRBRJESwgtEOn3cI-0" target="lL3YZRBRJESwgtEOn3cI-7">
          <mxGeometry width="50" height="50" relative="1" as="geometry">
            <mxPoint x="280" y="310" as="sourcePoint" />
            <mxPoint x="450" y="380" as="targetPoint" />
          </mxGeometry>
        </mxCell>
        <mxCell id="lL3YZRBRJESwgtEOn3cI-0" value="" style="verticalLabelPosition=bottom;verticalAlign=top;html=1;strokeWidth=4;shape=mxgraph.flowchart.on-page_reference;plain-purple;gradientColor=none;strokeColor=#000000;fillColor=#D5E8D4;" vertex="1" parent="9joBJKQd-rOn2Y1OiS3Y-1">
          <mxGeometry x="253.88" y="290" width="30" height="30" as="geometry" />
        </mxCell>
        <mxCell id="lL3YZRBRJESwgtEOn3cI-27" value="" style="endArrow=classic;html=1;strokeWidth=4;entryX=0;entryY=0.5;entryDx=0;entryDy=0;entryPerimeter=0;exitX=1;exitY=0.5;exitDx=0;exitDy=0;exitPerimeter=0;" edge="1" parent="9joBJKQd-rOn2Y1OiS3Y-1" source="lL3YZRBRJESwgtEOn3cI-17" target="lL3YZRBRJESwgtEOn3cI-19">
          <mxGeometry width="50" height="50" relative="1" as="geometry">
            <mxPoint x="283" y="460" as="sourcePoint" />
            <mxPoint x="450" y="380" as="targetPoint" />
          </mxGeometry>
        </mxCell>
        <mxCell id="lL3YZRBRJESwgtEOn3cI-28" value="" style="endArrow=classic;html=1;strokeWidth=4;exitX=1;exitY=0.5;exitDx=0;exitDy=0;exitPerimeter=0;entryX=0;entryY=0.5;entryDx=0;entryDy=0;entryPerimeter=0;" edge="1" parent="9joBJKQd-rOn2Y1OiS3Y-1" source="lL3YZRBRJESwgtEOn3cI-17" target="lL3YZRBRJESwgtEOn3cI-11">
          <mxGeometry width="50" height="50" relative="1" as="geometry">
            <mxPoint x="400" y="430" as="sourcePoint" />
            <mxPoint x="450" y="380" as="targetPoint" />
          </mxGeometry>
        </mxCell>
        <mxCell id="lL3YZRBRJESwgtEOn3cI-29" value="" style="endArrow=classic;html=1;strokeWidth=4;entryX=0.5;entryY=0;entryDx=0;entryDy=0;entryPerimeter=0;exitX=0;exitY=0.5;exitDx=0;exitDy=0;exitPerimeter=0;" edge="1" parent="9joBJKQd-rOn2Y1OiS3Y-1" source="lL3YZRBRJESwgtEOn3cI-17" target="lL3YZRBRJESwgtEOn3cI-24">
          <mxGeometry width="50" height="50" relative="1" as="geometry">
            <mxPoint x="254" y="440" as="sourcePoint" />
            <mxPoint x="450" y="520" as="targetPoint" />
          </mxGeometry>
        </mxCell>
        <mxCell id="lL3YZRBRJESwgtEOn3cI-31" value="" style="endArrow=classic;html=1;strokeWidth=4;entryX=0.5;entryY=0;entryDx=0;entryDy=0;entryPerimeter=0;" edge="1" parent="9joBJKQd-rOn2Y1OiS3Y-1" target="lL3YZRBRJESwgtEOn3cI-33">
          <mxGeometry width="50" height="50" relative="1" as="geometry">
            <mxPoint x="360" y="240" as="sourcePoint" />
            <mxPoint x="360" y="370" as="targetPoint" />
          </mxGeometry>
        </mxCell>
        <mxCell id="lL3YZRBRJESwgtEOn3cI-33" value="" style="verticalLabelPosition=bottom;verticalAlign=top;html=1;strokeWidth=4;shape=mxgraph.flowchart.on-page_reference;plain-purple;gradientColor=none;strokeColor=#000000;fillColor=#D5E8D4;" vertex="1" parent="9joBJKQd-rOn2Y1OiS3Y-1">
          <mxGeometry x="345" y="364" width="30" height="30" as="geometry" />
        </mxCell>
        <mxCell id="lL3YZRBRJESwgtEOn3cI-36" value="" style="endArrow=classic;html=1;strokeWidth=4;exitX=1;exitY=0.5;exitDx=0;exitDy=0;exitPerimeter=0;entryX=0;entryY=0.5;entryDx=0;entryDy=0;entryPerimeter=0;" edge="1" parent="9joBJKQd-rOn2Y1OiS3Y-1" source="lL3YZRBRJESwgtEOn3cI-33" target="lL3YZRBRJESwgtEOn3cI-37">
          <mxGeometry width="50" height="50" relative="1" as="geometry">
            <mxPoint x="380" y="390" as="sourcePoint" />
            <mxPoint x="720" y="490" as="targetPoint" />
          </mxGeometry>
        </mxCell>
        <mxCell id="lL3YZRBRJESwgtEOn3cI-37" value="" style="verticalLabelPosition=bottom;verticalAlign=top;html=1;strokeWidth=4;shape=mxgraph.flowchart.on-page_reference;plain-purple;gradientColor=none;strokeColor=#000000;fillColor=#D5E8D4;" vertex="1" parent="9joBJKQd-rOn2Y1OiS3Y-1">
          <mxGeometry x="710" y="480" width="30" height="30" as="geometry" />
        </mxCell>
        <mxCell id="lL3YZRBRJESwgtEOn3cI-38" value="ACD-1 C1" style="text;html=1;strokeColor=none;fillColor=none;align=center;verticalAlign=middle;whiteSpace=wrap;overflow=hidden;fontSize=14;fontStyle=1;fontFamily=Courier New;" vertex="1" parent="9joBJKQd-rOn2Y1OiS3Y-1">
          <mxGeometry x="740" y="352" width="80" height="42" as="geometry" />
        </mxCell>
        <mxCell id="lL3YZRBRJESwgtEOn3cI-39" value="ACD-2 C1" style="text;html=1;strokeColor=none;fillColor=none;align=center;verticalAlign=middle;whiteSpace=wrap;overflow=hidden;fontSize=14;fontStyle=1;fontFamily=Courier New;" vertex="1" parent="9joBJKQd-rOn2Y1OiS3Y-1">
          <mxGeometry x="745" y="476" width="85" height="42" as="geometry" />
        </mxCell>
        <mxCell id="lL3YZRBRJESwgtEOn3cI-40" value="ACD-1 C2&amp;nbsp;" style="text;html=1;strokeColor=none;fillColor=none;align=center;verticalAlign=middle;whiteSpace=wrap;overflow=hidden;fontSize=14;fontStyle=1;fontFamily=Courier New;" vertex="1" parent="9joBJKQd-rOn2Y1OiS3Y-1">
          <mxGeometry x="745" y="564" width="85" height="42" as="geometry" />
        </mxCell>
        <mxCell id="lL3YZRBRJESwgtEOn3cI-41" value="" style="endArrow=none;html=1;strokeWidth=4;entryX=0.5;entryY=1;entryDx=0;entryDy=0;entryPerimeter=0;" edge="1" parent="9joBJKQd-rOn2Y1OiS3Y-1" target="lL3YZRBRJESwgtEOn3cI-33">
          <mxGeometry width="50" height="50" relative="1" as="geometry">
            <mxPoint x="360" y="440" as="sourcePoint" />
            <mxPoint x="450" y="610" as="targetPoint" />
          </mxGeometry>
        </mxCell>
        <mxCell id="lL3YZRBRJESwgtEOn3cI-42" value="" style="endArrow=classic;html=1;strokeWidth=4;" edge="1" parent="9joBJKQd-rOn2Y1OiS3Y-1">
          <mxGeometry width="50" height="50" relative="1" as="geometry">
            <mxPoint x="360" y="440" as="sourcePoint" />
            <mxPoint x="530" y="500" as="targetPoint" />
          </mxGeometry>
        </mxCell>
        <mxCell id="lL3YZRBRJESwgtEOn3cI-11" value="" style="verticalLabelPosition=bottom;verticalAlign=top;html=1;strokeWidth=4;shape=mxgraph.flowchart.on-page_reference;plain-purple;gradientColor=none;strokeColor=#000000;fillColor=#D5E8D4;" vertex="1" parent="9joBJKQd-rOn2Y1OiS3Y-1">
          <mxGeometry x="535" y="640" width="30" height="30" as="geometry" />
        </mxCell>
        <mxCell id="lL3YZRBRJESwgtEOn3cI-43" value="" style="edgeStyle=orthogonalEdgeStyle;rounded=0;html=1;jettySize=auto;orthogonalLoop=1;strokeWidth=4;endArrow=none;endFill=0;" edge="1" parent="9joBJKQd-rOn2Y1OiS3Y-1" target="lL3YZRBRJESwgtEOn3cI-11">
          <mxGeometry x="592.25" y="139" as="geometry">
            <mxPoint x="550" y="139" as="sourcePoint" />
            <mxPoint x="551" y="900" as="targetPoint" />
            <Array as="points" />
          </mxGeometry>
        </mxCell>
        <mxCell id="lL3YZRBRJESwgtEOn3cI-44" value="" style="verticalLabelPosition=bottom;verticalAlign=top;html=1;strokeWidth=4;shape=mxgraph.flowchart.on-page_reference;plain-purple;gradientColor=none;strokeColor=#000000;fillColor=#D5E8D4;" vertex="1" parent="9joBJKQd-rOn2Y1OiS3Y-1">
          <mxGeometry x="536" y="488" width="30" height="30" as="geometry" />
        </mxCell>
        <mxCell id="lL3YZRBRJESwgtEOn3cI-45" value="ACD-2 C1" style="text;html=1;strokeColor=none;fillColor=none;align=center;verticalAlign=middle;whiteSpace=wrap;overflow=hidden;fontSize=14;fontStyle=1;fontFamily=Courier New;" vertex="1" parent="9joBJKQd-rOn2Y1OiS3Y-1">
          <mxGeometry x="370" y="350" width="85" height="42" as="geometry" />
        </mxCell>
        <mxCell id="lL3YZRBRJESwgtEOn3cI-46" value="ACD-2 C1" style="text;html=1;strokeColor=none;fillColor=none;align=center;verticalAlign=middle;whiteSpace=wrap;overflow=hidden;fontSize=14;fontStyle=1;fontFamily=Courier New;" vertex="1" parent="9joBJKQd-rOn2Y1OiS3Y-1">
          <mxGeometry x="560" y="488" width="85" height="42" as="geometry" />
        </mxCell>
        <mxCell id="lL3YZRBRJESwgtEOn3cI-47" value="ACD-1 C1+C2" style="text;html=1;strokeColor=none;fillColor=none;align=center;verticalAlign=middle;whiteSpace=wrap;overflow=hidden;fontSize=14;fontStyle=1;fontFamily=Courier New;" vertex="1" parent="9joBJKQd-rOn2Y1OiS3Y-1">
          <mxGeometry x="560" y="650" width="70" height="42" as="geometry" />
        </mxCell>
        <mxCell id="lL3YZRBRJESwgtEOn3cI-48" value="ACD-1 C1+C2" style="text;html=1;strokeColor=none;fillColor=none;align=center;verticalAlign=middle;whiteSpace=wrap;overflow=hidden;fontSize=14;fontStyle=1;fontFamily=Courier New;" vertex="1" parent="9joBJKQd-rOn2Y1OiS3Y-1">
          <mxGeometry x="189.38" y="660" width="70" height="42" as="geometry" />
        </mxCell>
        <mxCell id="lL3YZRBRJESwgtEOn3cI-49" value="" style="endArrow=classic;html=1;strokeWidth=4;entryX=1;entryY=0.5;entryDx=0;entryDy=0;entryPerimeter=0;" edge="1" parent="9joBJKQd-rOn2Y1OiS3Y-1" target="lL3YZRBRJESwgtEOn3cI-50">
          <mxGeometry width="50" height="50" relative="1" as="geometry">
            <mxPoint x="360" y="440" as="sourcePoint" />
            <mxPoint x="220" y="490" as="targetPoint" />
          </mxGeometry>
        </mxCell>
        <mxCell id="lL3YZRBRJESwgtEOn3cI-50" value="" style="verticalLabelPosition=bottom;verticalAlign=top;html=1;strokeWidth=4;shape=mxgraph.flowchart.on-page_reference;plain-purple;gradientColor=none;strokeColor=#000000;fillColor=#D5E8D4;" vertex="1" parent="9joBJKQd-rOn2Y1OiS3Y-1">
          <mxGeometry x="180" y="480" width="30" height="30" as="geometry" />
        </mxCell>
        <mxCell id="lL3YZRBRJESwgtEOn3cI-51" value="" style="edgeStyle=orthogonalEdgeStyle;rounded=0;html=1;jettySize=auto;orthogonalLoop=1;strokeWidth=4;endArrow=none;endFill=0;entryX=0.5;entryY=0;entryDx=0;entryDy=0;entryPerimeter=0;" edge="1" parent="9joBJKQd-rOn2Y1OiS3Y-1" target="lL3YZRBRJESwgtEOn3cI-50">
          <mxGeometry x="237.75" y="220" as="geometry">
            <mxPoint x="195.5" y="220" as="sourcePoint" />
            <mxPoint x="195" y="630" as="targetPoint" />
            <Array as="points" />
          </mxGeometry>
        </mxCell>
        <mxCell id="lL3YZRBRJESwgtEOn3cI-52" value="ACD-2 C1" style="text;html=1;strokeColor=none;fillColor=none;align=center;verticalAlign=middle;whiteSpace=wrap;overflow=hidden;fontSize=14;fontStyle=1;fontFamily=Courier New;" vertex="1" parent="9joBJKQd-rOn2Y1OiS3Y-1">
          <mxGeometry x="194.88" y="498" width="59" height="42" as="geometry" />
        </mxCell>
        <mxCell id="lL3YZRBRJESwgtEOn3cI-53" value="ACD-2" style="text;html=1;strokeColor=none;fillColor=none;align=center;verticalAlign=middle;whiteSpace=wrap;overflow=hidden;fontSize=14;fontStyle=1;fontFamily=Courier New;" vertex="1" parent="9joBJKQd-rOn2Y1OiS3Y-1">
          <mxGeometry x="335" y="170" width="50" height="42" as="geometry" />
        </mxCell>
        <mxCell id="lL3YZRBRJESwgtEOn3cI-54" value="ACD-3" style="text;html=1;strokeColor=none;fillColor=none;align=center;verticalAlign=middle;whiteSpace=wrap;overflow=hidden;fontSize=14;fontStyle=1;fontFamily=Courier New;" vertex="1" parent="9joBJKQd-rOn2Y1OiS3Y-1">
          <mxGeometry x="432.75" y="170" width="50" height="42" as="geometry" />
        </mxCell>
        <mxCell id="lL3YZRBRJESwgtEOn3cI-55" value="" style="endArrow=none;html=1;strokeWidth=4;exitX=1;exitY=0.5;exitDx=0;exitDy=0;exitPerimeter=0;" edge="1" parent="9joBJKQd-rOn2Y1OiS3Y-1" source="lL3YZRBRJESwgtEOn3cI-24">
          <mxGeometry width="50" height="50" relative="1" as="geometry">
            <mxPoint x="200" y="650" as="sourcePoint" />
            <mxPoint x="460" y="700" as="targetPoint" />
          </mxGeometry>
        </mxCell>
        <mxCell id="lL3YZRBRJESwgtEOn3cI-57" value="" style="endArrow=classic;html=1;strokeWidth=4;" edge="1" parent="9joBJKQd-rOn2Y1OiS3Y-1">
          <mxGeometry width="50" height="50" relative="1" as="geometry">
            <mxPoint x="459" y="701" as="sourcePoint" />
            <mxPoint x="459" y="759" as="targetPoint" />
          </mxGeometry>
        </mxCell>
        <mxCell id="lL3YZRBRJESwgtEOn3cI-58" value="" style="verticalLabelPosition=bottom;verticalAlign=top;html=1;strokeWidth=4;shape=mxgraph.flowchart.on-page_reference;plain-purple;gradientColor=none;strokeColor=#000000;fillColor=#D5E8D4;" vertex="1" parent="9joBJKQd-rOn2Y1OiS3Y-1">
          <mxGeometry x="444.75" y="760" width="30" height="30" as="geometry" />
        </mxCell>
        <mxCell id="lL3YZRBRJESwgtEOn3cI-59" value="ACD-3&lt;br&gt;C1" style="text;html=1;strokeColor=none;fillColor=none;align=center;verticalAlign=middle;whiteSpace=wrap;overflow=hidden;fontSize=14;fontStyle=1;fontFamily=Courier New;" vertex="1" parent="9joBJKQd-rOn2Y1OiS3Y-1">
          <mxGeometry x="385" y="760" width="54.75" height="40" as="geometry" />
        </mxCell>
        <mxCell id="lL3YZRBRJESwgtEOn3cI-60" value="" style="endArrow=none;html=1;strokeWidth=4;entryX=0.5;entryY=1;entryDx=0;entryDy=0;entryPerimeter=0;" edge="1" parent="9joBJKQd-rOn2Y1OiS3Y-1" target="lL3YZRBRJESwgtEOn3cI-58">
          <mxGeometry width="50" height="50" relative="1" as="geometry">
            <mxPoint x="460" y="830" as="sourcePoint" />
            <mxPoint x="450" y="670" as="targetPoint" />
          </mxGeometry>
        </mxCell>
        <mxCell id="lL3YZRBRJESwgtEOn3cI-62" value="" style="endArrow=classic;html=1;strokeWidth=4;entryX=0;entryY=0.5;entryDx=0;entryDy=0;entryPerimeter=0;" edge="1" parent="9joBJKQd-rOn2Y1OiS3Y-1" target="lL3YZRBRJESwgtEOn3cI-63">
          <mxGeometry width="50" height="50" relative="1" as="geometry">
            <mxPoint x="460" y="830" as="sourcePoint" />
            <mxPoint x="700" y="880" as="targetPoint" />
          </mxGeometry>
        </mxCell>
        <mxCell id="lL3YZRBRJESwgtEOn3cI-63" value="" style="verticalLabelPosition=bottom;verticalAlign=top;html=1;strokeWidth=4;shape=mxgraph.flowchart.on-page_reference;plain-purple;gradientColor=none;strokeColor=#000000;fillColor=#D5E8D4;" vertex="1" parent="9joBJKQd-rOn2Y1OiS3Y-1">
          <mxGeometry x="710" y="870" width="30" height="30" as="geometry" />
        </mxCell>
        <mxCell id="lL3YZRBRJESwgtEOn3cI-64" value="" style="verticalLabelPosition=bottom;verticalAlign=top;html=1;strokeWidth=4;shape=mxgraph.flowchart.on-page_reference;plain-purple;gradientColor=none;strokeColor=#000000;fillColor=#D5E8D4;" vertex="1" parent="9joBJKQd-rOn2Y1OiS3Y-1">
          <mxGeometry x="536" y="910" width="30" height="30" as="geometry" />
        </mxCell>
        <mxCell id="lL3YZRBRJESwgtEOn3cI-65" value="ACD-3 C1&amp;nbsp;" style="text;html=1;strokeColor=none;fillColor=none;align=center;verticalAlign=middle;whiteSpace=wrap;overflow=hidden;fontSize=14;fontStyle=1;fontFamily=Courier New;" vertex="1" parent="9joBJKQd-rOn2Y1OiS3Y-1">
          <mxGeometry x="745" y="868" width="85" height="42" as="geometry" />
        </mxCell>
        <mxCell id="lL3YZRBRJESwgtEOn3cI-66" value="ACD-3 C1&amp;nbsp;" style="text;html=1;strokeColor=none;fillColor=none;align=center;verticalAlign=middle;whiteSpace=wrap;overflow=hidden;fontSize=14;fontStyle=1;fontFamily=Courier New;" vertex="1" parent="9joBJKQd-rOn2Y1OiS3Y-1">
          <mxGeometry x="570" y="910" width="85" height="42" as="geometry" />
        </mxCell>
        <mxCell id="lL3YZRBRJESwgtEOn3cI-67" value="" style="verticalLabelPosition=bottom;verticalAlign=top;html=1;strokeWidth=4;shape=mxgraph.flowchart.on-page_reference;plain-purple;gradientColor=none;strokeColor=#000000;fillColor=#D5E8D4;" vertex="1" parent="9joBJKQd-rOn2Y1OiS3Y-1">
          <mxGeometry x="180" y="940" width="30" height="30" as="geometry" />
        </mxCell>
        <mxCell id="lL3YZRBRJESwgtEOn3cI-68" value="" style="endArrow=classic;html=1;strokeWidth=4;entryX=0;entryY=0.5;entryDx=0;entryDy=0;entryPerimeter=0;" edge="1" parent="9joBJKQd-rOn2Y1OiS3Y-1" target="lL3YZRBRJESwgtEOn3cI-64">
          <mxGeometry width="50" height="50" relative="1" as="geometry">
            <mxPoint x="460" y="830" as="sourcePoint" />
            <mxPoint x="450" y="670" as="targetPoint" />
          </mxGeometry>
        </mxCell>
        <mxCell id="lL3YZRBRJESwgtEOn3cI-69" value="" style="endArrow=classic;html=1;strokeWidth=4;entryX=1;entryY=0.5;entryDx=0;entryDy=0;entryPerimeter=0;" edge="1" parent="9joBJKQd-rOn2Y1OiS3Y-1" target="lL3YZRBRJESwgtEOn3cI-67">
          <mxGeometry width="50" height="50" relative="1" as="geometry">
            <mxPoint x="460" y="830" as="sourcePoint" />
            <mxPoint x="450" y="670" as="targetPoint" />
          </mxGeometry>
        </mxCell>
        <mxCell id="lL3YZRBRJESwgtEOn3cI-70" value="ACD-3 C1&amp;nbsp;" style="text;html=1;strokeColor=none;fillColor=none;align=center;verticalAlign=middle;whiteSpace=wrap;overflow=hidden;fontSize=14;fontStyle=1;fontFamily=Courier New;" vertex="1" parent="9joBJKQd-rOn2Y1OiS3Y-1">
          <mxGeometry x="226" y="940" width="85" height="42" as="geometry" />
        </mxCell>
        <mxCell id="lL3YZRBRJESwgtEOn3cI-71" value="" style="verticalLabelPosition=bottom;verticalAlign=top;html=1;strokeWidth=4;shape=mxgraph.flowchart.on-page_reference;plain-blue;gradientColor=none;fillColor=#B5E3Fe;strokeColor=#000000;" vertex="1" parent="9joBJKQd-rOn2Y1OiS3Y-1">
          <mxGeometry x="85" y="1010" width="30" height="30" as="geometry" />
        </mxCell>
        <mxCell id="lL3YZRBRJESwgtEOn3cI-72" value="Tag: 2.0.3" style="text;html=1;strokeColor=none;fillColor=none;align=center;verticalAlign=middle;whiteSpace=wrap;overflow=hidden;fontSize=14;" vertex="1" parent="9joBJKQd-rOn2Y1OiS3Y-1">
          <mxGeometry x="5" y="1015" width="70" height="20" as="geometry" />
        </mxCell>
        <mxCell id="lL3YZRBRJESwgtEOn3cI-73" value="" style="endArrow=classic;html=1;strokeWidth=4;exitX=0.145;exitY=0.855;exitDx=0;exitDy=0;exitPerimeter=0;entryX=1;entryY=0.5;entryDx=0;entryDy=0;entryPerimeter=0;" edge="1" parent="9joBJKQd-rOn2Y1OiS3Y-1" source="lL3YZRBRJESwgtEOn3cI-67" target="lL3YZRBRJESwgtEOn3cI-71">
          <mxGeometry width="50" height="50" relative="1" as="geometry">
            <mxPoint x="400" y="1060" as="sourcePoint" />
            <mxPoint x="450" y="1010" as="targetPoint" />
          </mxGeometry>
        </mxCell>
        <mxCell id="4L0iGRT6plvIhLmYLp6q-3" value="&lt;font style=&quot;font-size: 9px&quot;&gt;(Passed test)&lt;/font&gt;" style="text;html=1;strokeColor=none;fillColor=none;align=center;verticalAlign=middle;whiteSpace=wrap;overflow=hidden;fontSize=14;fontStyle=1;fontFamily=Courier New;" vertex="1" parent="9joBJKQd-rOn2Y1OiS3Y-1">
          <mxGeometry x="564" y="508" width="74" height="22" as="geometry" />
        </mxCell>
        <mxCell id="4L0iGRT6plvIhLmYLp6q-4" value="&lt;font style=&quot;font-size: 9px&quot;&gt;(Passed test)&lt;/font&gt;" style="text;html=1;strokeColor=none;fillColor=none;align=center;verticalAlign=middle;whiteSpace=wrap;overflow=hidden;fontSize=14;fontStyle=1;fontFamily=Courier New;" vertex="1" parent="9joBJKQd-rOn2Y1OiS3Y-1">
          <mxGeometry x="747" y="498" width="74" height="22" as="geometry" />
        </mxCell>
        <mxCell id="4L0iGRT6plvIhLmYLp6q-5" value="&lt;font style=&quot;font-size: 9px&quot;&gt;(Passed test)&lt;/font&gt;" style="text;html=1;strokeColor=none;fillColor=none;align=center;verticalAlign=middle;whiteSpace=wrap;overflow=hidden;fontSize=14;fontStyle=1;fontFamily=Courier New;" vertex="1" parent="9joBJKQd-rOn2Y1OiS3Y-1">
          <mxGeometry x="564" y="680" width="74" height="22" as="geometry" />
        </mxCell>
        <mxCell id="4L0iGRT6plvIhLmYLp6q-6" value="&lt;font style=&quot;font-size: 9px&quot;&gt;(Passed test)&lt;/font&gt;" style="text;html=1;strokeColor=none;fillColor=none;align=center;verticalAlign=middle;whiteSpace=wrap;overflow=hidden;fontSize=14;fontStyle=1;fontFamily=Courier New;" vertex="1" parent="9joBJKQd-rOn2Y1OiS3Y-1">
          <mxGeometry x="740" y="888" width="74" height="22" as="geometry" />
        </mxCell>
        <mxCell id="4L0iGRT6plvIhLmYLp6q-7" value="&lt;font style=&quot;font-size: 9px&quot;&gt;(Passed test)&lt;/font&gt;" style="text;html=1;strokeColor=none;fillColor=none;align=center;verticalAlign=middle;whiteSpace=wrap;overflow=hidden;fontSize=14;fontStyle=1;fontFamily=Courier New;" vertex="1" parent="9joBJKQd-rOn2Y1OiS3Y-1">
          <mxGeometry x="560" y="940" width="74" height="22" as="geometry" />
        </mxCell>
        <mxCell id="4L0iGRT6plvIhLmYLp6q-8" value="&lt;font style=&quot;font-size: 9px&quot;&gt;(Failed test)&lt;/font&gt;" style="text;html=1;strokeColor=none;fillColor=none;align=center;verticalAlign=middle;whiteSpace=wrap;overflow=hidden;fontSize=14;fontStyle=1;fontFamily=Courier New;" vertex="1" parent="9joBJKQd-rOn2Y1OiS3Y-1">
          <mxGeometry x="740" y="380" width="74" height="22" as="geometry" />
        </mxCell>
        <mxCell id="4L0iGRT6plvIhLmYLp6q-9" value="&lt;font style=&quot;font-size: 9px&quot;&gt;(Fixed ACD-1 C1)&lt;/font&gt;" style="text;html=1;strokeColor=none;fillColor=none;align=center;verticalAlign=middle;whiteSpace=wrap;overflow=hidden;fontSize=14;fontStyle=1;fontFamily=Courier New;" vertex="1" parent="9joBJKQd-rOn2Y1OiS3Y-1">
          <mxGeometry x="231.82" y="592" width="98.12" height="22" as="geometry" />
        </mxCell>
      </root>
    </mxGraphModel>
  </diagram>
  <diagram name="Simple Flow" id="KPK2uvUaVvP7AKldq3QI">
    <mxGraphModel dx="2748" dy="1542" grid="1" gridSize="10" guides="1" tooltips="1" connect="1" arrows="1" fold="1" page="1" pageScale="1" pageWidth="850" pageHeight="1100" math="0" shadow="0">
      <root>
        <mxCell id="GOsrpBzS1jB6Op-8hKka-0" />
        <mxCell id="GOsrpBzS1jB6Op-8hKka-1" parent="GOsrpBzS1jB6Op-8hKka-0" />
        <UserObject label="Example diagram for a workflow similar to &quot;Git-flow&quot; :" link="https://nvie.com/posts/a-successful-git-branching-model/" id="GOsrpBzS1jB6Op-8hKka-3">
          <mxCell style="text;whiteSpace=wrap;html=1;fontStyle=1;fontSize=16;" vertex="1" parent="GOsrpBzS1jB6Op-8hKka-1">
            <mxGeometry x="55" y="50" width="427.75" height="20" as="geometry" />
          </mxCell>
        </UserObject>
        <mxCell id="GOsrpBzS1jB6Op-8hKka-4" value="master" style="text;html=1;strokeColor=none;fillColor=none;align=center;verticalAlign=middle;whiteSpace=wrap;overflow=hidden;fontSize=14;fontStyle=1;fontFamily=Courier New;" vertex="1" parent="GOsrpBzS1jB6Op-8hKka-1">
          <mxGeometry x="75" y="97" width="50" height="42" as="geometry" />
        </mxCell>
        <mxCell id="GOsrpBzS1jB6Op-8hKka-5" value="staging" style="text;html=1;strokeColor=none;fillColor=none;align=center;verticalAlign=middle;whiteSpace=wrap;overflow=hidden;fontSize=14;fontStyle=1;fontFamily=Courier New;" vertex="1" parent="GOsrpBzS1jB6Op-8hKka-1">
          <mxGeometry x="166" y="97" width="60" height="42" as="geometry" />
        </mxCell>
        <mxCell id="GOsrpBzS1jB6Op-8hKka-6" value="int" style="text;html=1;strokeColor=none;fillColor=none;align=center;verticalAlign=middle;whiteSpace=wrap;overflow=hidden;fontSize=14;fontStyle=1;fontFamily=Courier New;" vertex="1" parent="GOsrpBzS1jB6Op-8hKka-1">
          <mxGeometry x="520" y="97" width="60" height="42" as="geometry" />
        </mxCell>
        <mxCell id="GOsrpBzS1jB6Op-8hKka-7" value="dev" style="text;html=1;strokeColor=none;fillColor=none;align=center;verticalAlign=middle;whiteSpace=wrap;overflow=hidden;fontSize=14;fontStyle=1;fontFamily=Courier New;" vertex="1" parent="GOsrpBzS1jB6Op-8hKka-1">
          <mxGeometry x="695" y="97" width="60" height="42" as="geometry" />
        </mxCell>
        <mxCell id="GOsrpBzS1jB6Op-8hKka-8" style="edgeStyle=orthogonalEdgeStyle;rounded=0;orthogonalLoop=1;jettySize=auto;html=1;exitX=0;exitY=0.5;exitDx=0;exitDy=0;entryX=0;entryY=0.25;entryDx=0;entryDy=0;" edge="1" parent="GOsrpBzS1jB6Op-8hKka-1" source="GOsrpBzS1jB6Op-8hKka-4" target="GOsrpBzS1jB6Op-8hKka-4">
          <mxGeometry relative="1" as="geometry" />
        </mxCell>
        <mxCell id="GOsrpBzS1jB6Op-8hKka-9" value="" style="edgeStyle=orthogonalEdgeStyle;rounded=0;html=1;jettySize=auto;orthogonalLoop=1;strokeWidth=4;endArrow=none;endFill=0;" edge="1" parent="GOsrpBzS1jB6Op-8hKka-1">
          <mxGeometry x="141.75" y="130" as="geometry">
            <mxPoint x="99.5" y="130" as="sourcePoint" />
            <mxPoint x="100" y="170" as="targetPoint" />
            <Array as="points">
              <mxPoint x="99.5" y="160" />
              <mxPoint x="99.5" y="160" />
            </Array>
          </mxGeometry>
        </mxCell>
        <mxCell id="GOsrpBzS1jB6Op-8hKka-10" value="" style="verticalLabelPosition=bottom;verticalAlign=top;html=1;strokeWidth=4;shape=mxgraph.flowchart.on-page_reference;plain-blue;gradientColor=none;fillColor=#B5E3Fe;strokeColor=#000000;" vertex="1" parent="GOsrpBzS1jB6Op-8hKka-1">
          <mxGeometry x="85" y="140" width="30" height="30" as="geometry" />
        </mxCell>
        <mxCell id="GOsrpBzS1jB6Op-8hKka-11" value="Tag: 2.0.2" style="text;html=1;strokeColor=none;fillColor=none;align=center;verticalAlign=middle;whiteSpace=wrap;overflow=hidden;fontSize=14;" vertex="1" parent="GOsrpBzS1jB6Op-8hKka-1">
          <mxGeometry x="5" y="145" width="70" height="20" as="geometry" />
        </mxCell>
        <mxCell id="GOsrpBzS1jB6Op-8hKka-12" value="" style="edgeStyle=orthogonalEdgeStyle;rounded=0;html=1;jettySize=auto;orthogonalLoop=1;strokeWidth=4;endArrow=none;endFill=0;" edge="1" parent="GOsrpBzS1jB6Op-8hKka-1">
          <mxGeometry x="237.75" y="130" as="geometry">
            <mxPoint x="195.5" y="130" as="sourcePoint" />
            <mxPoint x="196" y="200" as="targetPoint" />
            <Array as="points">
              <mxPoint x="195.5" y="160" />
              <mxPoint x="195.5" y="160" />
            </Array>
          </mxGeometry>
        </mxCell>
        <mxCell id="GOsrpBzS1jB6Op-8hKka-13" value="" style="verticalLabelPosition=bottom;verticalAlign=top;html=1;strokeWidth=4;shape=mxgraph.flowchart.on-page_reference;plain-purple;gradientColor=none;strokeColor=#000000;fillColor=#D5E8D4;" vertex="1" parent="GOsrpBzS1jB6Op-8hKka-1">
          <mxGeometry x="181" y="190" width="30" height="30" as="geometry" />
        </mxCell>
        <mxCell id="GOsrpBzS1jB6Op-8hKka-14" style="edgeStyle=orthogonalEdgeStyle;curved=1;rounded=0;orthogonalLoop=1;jettySize=auto;html=1;exitX=1;exitY=0.5;exitDx=0;exitDy=0;exitPerimeter=0;entryX=0;entryY=0.5;entryDx=0;entryDy=0;entryPerimeter=0;endArrow=none;endFill=0;strokeWidth=4;fontFamily=Courier New;fontColor=#009900;" edge="1" parent="GOsrpBzS1jB6Op-8hKka-1" target="GOsrpBzS1jB6Op-8hKka-13">
          <mxGeometry relative="1" as="geometry">
            <mxPoint x="115" y="160" as="sourcePoint" />
            <mxPoint x="169" y="239" as="targetPoint" />
            <Array as="points">
              <mxPoint x="140" y="160" />
              <mxPoint x="140" y="205" />
            </Array>
          </mxGeometry>
        </mxCell>
        <mxCell id="GOsrpBzS1jB6Op-8hKka-15" value="" style="edgeStyle=orthogonalEdgeStyle;rounded=0;html=1;jettySize=auto;orthogonalLoop=1;strokeWidth=4;endArrow=none;endFill=0;" edge="1" parent="GOsrpBzS1jB6Op-8hKka-1">
          <mxGeometry x="141.75" y="170" as="geometry">
            <mxPoint x="99.5" y="170" as="sourcePoint" />
            <mxPoint x="100" y="1090" as="targetPoint" />
            <Array as="points">
              <mxPoint x="100" y="230" />
              <mxPoint x="100" y="230" />
            </Array>
          </mxGeometry>
        </mxCell>
        <mxCell id="GOsrpBzS1jB6Op-8hKka-16" value="" style="edgeStyle=orthogonalEdgeStyle;rounded=0;html=1;jettySize=auto;orthogonalLoop=1;strokeWidth=4;endArrow=none;endFill=0;startArrow=none;exitX=0.5;exitY=1;exitDx=0;exitDy=0;exitPerimeter=0;" edge="1" parent="GOsrpBzS1jB6Op-8hKka-1" source="GOsrpBzS1jB6Op-8hKka-13">
          <mxGeometry x="237.75" y="220" as="geometry">
            <mxPoint x="195" y="510" as="sourcePoint" />
            <mxPoint x="195" y="1090" as="targetPoint" />
            <Array as="points" />
          </mxGeometry>
        </mxCell>
        <mxCell id="GOsrpBzS1jB6Op-8hKka-17" value="" style="endArrow=none;html=1;entryX=1;entryY=0.5;entryDx=0;entryDy=0;entryPerimeter=0;strokeWidth=4;" edge="1" parent="GOsrpBzS1jB6Op-8hKka-1" target="GOsrpBzS1jB6Op-8hKka-13">
          <mxGeometry width="50" height="50" relative="1" as="geometry">
            <mxPoint x="269" y="230" as="sourcePoint" />
            <mxPoint x="450" y="370" as="targetPoint" />
          </mxGeometry>
        </mxCell>
        <mxCell id="GOsrpBzS1jB6Op-8hKka-18" value="ACD-1" style="text;html=1;strokeColor=none;fillColor=none;align=center;verticalAlign=middle;whiteSpace=wrap;overflow=hidden;fontSize=14;fontStyle=1;fontFamily=Courier New;" vertex="1" parent="GOsrpBzS1jB6Op-8hKka-1">
          <mxGeometry x="243.87" y="170" width="50" height="42" as="geometry" />
        </mxCell>
        <mxCell id="GOsrpBzS1jB6Op-8hKka-19" value="" style="edgeStyle=orthogonalEdgeStyle;rounded=0;html=1;jettySize=auto;orthogonalLoop=1;strokeWidth=4;endArrow=none;endFill=0;startArrow=none;" edge="1" parent="GOsrpBzS1jB6Op-8hKka-1" source="GOsrpBzS1jB6Op-8hKka-22">
          <mxGeometry x="310.63" y="238" as="geometry">
            <mxPoint x="268.38" y="238" as="sourcePoint" />
            <mxPoint x="269" y="420" as="targetPoint" />
            <Array as="points">
              <mxPoint x="268.88" y="298" />
              <mxPoint x="268.88" y="298" />
            </Array>
          </mxGeometry>
        </mxCell>
        <mxCell id="GOsrpBzS1jB6Op-8hKka-20" value="" style="edgeStyle=orthogonalEdgeStyle;rounded=0;html=1;jettySize=auto;orthogonalLoop=1;strokeWidth=4;endArrow=none;endFill=0;startArrow=none;" edge="1" parent="GOsrpBzS1jB6Op-8hKka-1" source="GOsrpBzS1jB6Op-8hKka-23">
          <mxGeometry x="766.75" y="139" as="geometry">
            <mxPoint x="724.5" y="139" as="sourcePoint" />
            <mxPoint x="725" y="1090" as="targetPoint" />
            <Array as="points">
              <mxPoint x="725" y="199" />
              <mxPoint x="725" y="199" />
            </Array>
          </mxGeometry>
        </mxCell>
        <mxCell id="GOsrpBzS1jB6Op-8hKka-21" value="" style="edgeStyle=orthogonalEdgeStyle;rounded=0;html=1;jettySize=auto;orthogonalLoop=1;strokeWidth=4;endArrow=none;endFill=0;startArrow=none;" edge="1" parent="GOsrpBzS1jB6Op-8hKka-1" source="GOsrpBzS1jB6Op-8hKka-44">
          <mxGeometry x="592.25" y="139" as="geometry">
            <mxPoint x="550" y="139" as="sourcePoint" />
            <mxPoint x="551" y="1090" as="targetPoint" />
            <Array as="points">
              <mxPoint x="550" y="140" />
              <mxPoint x="551" y="140" />
            </Array>
          </mxGeometry>
        </mxCell>
        <mxCell id="GOsrpBzS1jB6Op-8hKka-22" value="" style="verticalLabelPosition=bottom;verticalAlign=top;html=1;strokeWidth=4;shape=mxgraph.flowchart.on-page_reference;plain-purple;gradientColor=none;strokeColor=#000000;fillColor=#D5E8D4;" vertex="1" parent="GOsrpBzS1jB6Op-8hKka-1">
          <mxGeometry x="255.88" y="550" width="30" height="30" as="geometry" />
        </mxCell>
        <mxCell id="GOsrpBzS1jB6Op-8hKka-23" value="" style="verticalLabelPosition=bottom;verticalAlign=top;html=1;strokeWidth=4;shape=mxgraph.flowchart.on-page_reference;plain-purple;gradientColor=none;strokeColor=#000000;fillColor=#D5E8D4;" vertex="1" parent="GOsrpBzS1jB6Op-8hKka-1">
          <mxGeometry x="710" y="610" width="30" height="30" as="geometry" />
        </mxCell>
        <mxCell id="GOsrpBzS1jB6Op-8hKka-24" value="" style="edgeStyle=orthogonalEdgeStyle;rounded=0;html=1;jettySize=auto;orthogonalLoop=1;strokeWidth=4;endArrow=none;endFill=0;" edge="1" parent="GOsrpBzS1jB6Op-8hKka-1" target="GOsrpBzS1jB6Op-8hKka-23">
          <mxGeometry x="766.75" y="139" as="geometry">
            <mxPoint x="724.5" y="139" as="sourcePoint" />
            <mxPoint x="725" y="979" as="targetPoint" />
            <Array as="points" />
          </mxGeometry>
        </mxCell>
        <mxCell id="GOsrpBzS1jB6Op-8hKka-25" value="" style="verticalLabelPosition=bottom;verticalAlign=top;html=1;strokeWidth=4;shape=mxgraph.flowchart.on-page_reference;plain-purple;gradientColor=none;strokeColor=#000000;fillColor=#D5E8D4;" vertex="1" parent="GOsrpBzS1jB6Op-8hKka-1">
          <mxGeometry x="710" y="380" width="30" height="30" as="geometry" />
        </mxCell>
        <mxCell id="GOsrpBzS1jB6Op-8hKka-26" value="ACD-1 C1&amp;nbsp;" style="text;html=1;strokeColor=none;fillColor=none;align=center;verticalAlign=middle;whiteSpace=wrap;overflow=hidden;fontSize=14;fontStyle=1;fontFamily=Courier New;" vertex="1" parent="GOsrpBzS1jB6Op-8hKka-1">
          <mxGeometry x="280" y="270" width="80" height="42" as="geometry" />
        </mxCell>
        <mxCell id="GOsrpBzS1jB6Op-8hKka-27" value="ACD-1 C2" style="text;html=1;strokeColor=none;fillColor=none;align=center;verticalAlign=middle;whiteSpace=wrap;overflow=hidden;fontSize=14;fontStyle=1;fontFamily=Courier New;" vertex="1" parent="GOsrpBzS1jB6Op-8hKka-1">
          <mxGeometry x="245.88" y="580" width="70" height="42" as="geometry" />
        </mxCell>
        <mxCell id="GOsrpBzS1jB6Op-8hKka-28" value="" style="verticalLabelPosition=bottom;verticalAlign=top;html=1;strokeWidth=4;shape=mxgraph.flowchart.on-page_reference;plain-purple;gradientColor=none;strokeColor=#000000;fillColor=#D5E8D4;" vertex="1" parent="GOsrpBzS1jB6Op-8hKka-1">
          <mxGeometry x="180" y="630" width="30" height="30" as="geometry" />
        </mxCell>
        <mxCell id="GOsrpBzS1jB6Op-8hKka-29" value="" style="endArrow=classic;html=1;strokeWidth=4;" edge="1" parent="GOsrpBzS1jB6Op-8hKka-1">
          <mxGeometry width="50" height="50" relative="1" as="geometry">
            <mxPoint x="269" y="229" as="sourcePoint" />
            <mxPoint x="269" y="288" as="targetPoint" />
          </mxGeometry>
        </mxCell>
        <mxCell id="GOsrpBzS1jB6Op-8hKka-30" value="" style="endArrow=classic;html=1;strokeWidth=4;entryX=0;entryY=0.5;entryDx=0;entryDy=0;entryPerimeter=0;exitX=1;exitY=0.5;exitDx=0;exitDy=0;exitPerimeter=0;" edge="1" parent="GOsrpBzS1jB6Op-8hKka-1" source="GOsrpBzS1jB6Op-8hKka-31" target="GOsrpBzS1jB6Op-8hKka-25">
          <mxGeometry width="50" height="50" relative="1" as="geometry">
            <mxPoint x="280" y="310" as="sourcePoint" />
            <mxPoint x="450" y="380" as="targetPoint" />
          </mxGeometry>
        </mxCell>
        <mxCell id="GOsrpBzS1jB6Op-8hKka-31" value="" style="verticalLabelPosition=bottom;verticalAlign=top;html=1;strokeWidth=4;shape=mxgraph.flowchart.on-page_reference;plain-purple;gradientColor=none;strokeColor=#000000;fillColor=#D5E8D4;" vertex="1" parent="GOsrpBzS1jB6Op-8hKka-1">
          <mxGeometry x="253.88" y="290" width="30" height="30" as="geometry" />
        </mxCell>
        <mxCell id="GOsrpBzS1jB6Op-8hKka-32" value="" style="endArrow=classic;html=1;strokeWidth=4;entryX=0;entryY=0.5;entryDx=0;entryDy=0;entryPerimeter=0;exitX=1;exitY=0.5;exitDx=0;exitDy=0;exitPerimeter=0;" edge="1" parent="GOsrpBzS1jB6Op-8hKka-1" source="GOsrpBzS1jB6Op-8hKka-22" target="GOsrpBzS1jB6Op-8hKka-23">
          <mxGeometry width="50" height="50" relative="1" as="geometry">
            <mxPoint x="283" y="460" as="sourcePoint" />
            <mxPoint x="450" y="380" as="targetPoint" />
          </mxGeometry>
        </mxCell>
        <mxCell id="GOsrpBzS1jB6Op-8hKka-33" value="" style="endArrow=classic;html=1;strokeWidth=4;exitX=1;exitY=0.5;exitDx=0;exitDy=0;exitPerimeter=0;entryX=0;entryY=0.5;entryDx=0;entryDy=0;entryPerimeter=0;" edge="1" parent="GOsrpBzS1jB6Op-8hKka-1" source="GOsrpBzS1jB6Op-8hKka-22" target="GOsrpBzS1jB6Op-8hKka-44">
          <mxGeometry width="50" height="50" relative="1" as="geometry">
            <mxPoint x="400" y="430" as="sourcePoint" />
            <mxPoint x="450" y="380" as="targetPoint" />
          </mxGeometry>
        </mxCell>
        <mxCell id="GOsrpBzS1jB6Op-8hKka-34" value="" style="endArrow=classic;html=1;strokeWidth=4;entryX=0.5;entryY=0;entryDx=0;entryDy=0;entryPerimeter=0;exitX=0;exitY=0.5;exitDx=0;exitDy=0;exitPerimeter=0;" edge="1" parent="GOsrpBzS1jB6Op-8hKka-1" source="GOsrpBzS1jB6Op-8hKka-22" target="GOsrpBzS1jB6Op-8hKka-28">
          <mxGeometry width="50" height="50" relative="1" as="geometry">
            <mxPoint x="254" y="440" as="sourcePoint" />
            <mxPoint x="450" y="520" as="targetPoint" />
          </mxGeometry>
        </mxCell>
        <mxCell id="GOsrpBzS1jB6Op-8hKka-39" value="ACD-1 C1" style="text;html=1;strokeColor=none;fillColor=none;align=center;verticalAlign=middle;whiteSpace=wrap;overflow=hidden;fontSize=14;fontStyle=1;fontFamily=Courier New;" vertex="1" parent="GOsrpBzS1jB6Op-8hKka-1">
          <mxGeometry x="740" y="352" width="80" height="42" as="geometry" />
        </mxCell>
        <mxCell id="GOsrpBzS1jB6Op-8hKka-41" value="ACD-1 C2&amp;nbsp;" style="text;html=1;strokeColor=none;fillColor=none;align=center;verticalAlign=middle;whiteSpace=wrap;overflow=hidden;fontSize=14;fontStyle=1;fontFamily=Courier New;" vertex="1" parent="GOsrpBzS1jB6Op-8hKka-1">
          <mxGeometry x="745" y="564" width="85" height="42" as="geometry" />
        </mxCell>
        <mxCell id="GOsrpBzS1jB6Op-8hKka-44" value="" style="verticalLabelPosition=bottom;verticalAlign=top;html=1;strokeWidth=4;shape=mxgraph.flowchart.on-page_reference;plain-purple;gradientColor=none;strokeColor=#000000;fillColor=#D5E8D4;" vertex="1" parent="GOsrpBzS1jB6Op-8hKka-1">
          <mxGeometry x="535" y="640" width="30" height="30" as="geometry" />
        </mxCell>
        <mxCell id="GOsrpBzS1jB6Op-8hKka-49" value="ACD-2 C1+C2" style="text;html=1;strokeColor=none;fillColor=none;align=center;verticalAlign=middle;whiteSpace=wrap;overflow=hidden;fontSize=14;fontStyle=1;fontFamily=Courier New;" vertex="1" parent="GOsrpBzS1jB6Op-8hKka-1">
          <mxGeometry x="560" y="650" width="70" height="42" as="geometry" />
        </mxCell>
        <mxCell id="GOsrpBzS1jB6Op-8hKka-50" value="ACD-1 C1+C2" style="text;html=1;strokeColor=none;fillColor=none;align=center;verticalAlign=middle;whiteSpace=wrap;overflow=hidden;fontSize=14;fontStyle=1;fontFamily=Courier New;" vertex="1" parent="GOsrpBzS1jB6Op-8hKka-1">
          <mxGeometry x="189.38" y="660" width="70" height="42" as="geometry" />
        </mxCell>
        <mxCell id="GOsrpBzS1jB6Op-8hKka-71" value="" style="verticalLabelPosition=bottom;verticalAlign=top;html=1;strokeWidth=4;shape=mxgraph.flowchart.on-page_reference;plain-blue;gradientColor=none;fillColor=#B5E3Fe;strokeColor=#000000;" vertex="1" parent="GOsrpBzS1jB6Op-8hKka-1">
          <mxGeometry x="85" y="1010" width="30" height="30" as="geometry" />
        </mxCell>
        <mxCell id="GOsrpBzS1jB6Op-8hKka-72" value="Tag: 2.0.3" style="text;html=1;strokeColor=none;fillColor=none;align=center;verticalAlign=middle;whiteSpace=wrap;overflow=hidden;fontSize=14;" vertex="1" parent="GOsrpBzS1jB6Op-8hKka-1">
          <mxGeometry x="5" y="1015" width="70" height="20" as="geometry" />
        </mxCell>
        <mxCell id="GOsrpBzS1jB6Op-8hKka-74" value="" style="verticalLabelPosition=bottom;verticalAlign=top;html=1;strokeWidth=4;shape=mxgraph.flowchart.on-page_reference;plain-purple;gradientColor=none;strokeColor=#000000;fillColor=#D5E8D4;" vertex="1" parent="GOsrpBzS1jB6Op-8hKka-1">
          <mxGeometry x="181" y="960" width="30" height="30" as="geometry" />
        </mxCell>
        <mxCell id="GOsrpBzS1jB6Op-8hKka-75" value="" style="endArrow=classic;html=1;strokeWidth=4;exitX=0;exitY=0.5;exitDx=0;exitDy=0;exitPerimeter=0;entryX=1;entryY=0.5;entryDx=0;entryDy=0;entryPerimeter=0;" edge="1" parent="GOsrpBzS1jB6Op-8hKka-1" source="GOsrpBzS1jB6Op-8hKka-74" target="GOsrpBzS1jB6Op-8hKka-71">
          <mxGeometry width="50" height="50" relative="1" as="geometry">
            <mxPoint x="400" y="740" as="sourcePoint" />
            <mxPoint x="450" y="690" as="targetPoint" />
          </mxGeometry>
        </mxCell>
        <mxCell id="CCz8ZMM23FDN1S0Y5TEv-0" value="&lt;font style=&quot;font-size: 9px&quot;&gt;(Failed test)&lt;/font&gt;" style="text;html=1;strokeColor=none;fillColor=none;align=center;verticalAlign=middle;whiteSpace=wrap;overflow=hidden;fontSize=14;fontStyle=1;fontFamily=Courier New;" vertex="1" parent="GOsrpBzS1jB6Op-8hKka-1">
          <mxGeometry x="745" y="380" width="74" height="22" as="geometry" />
        </mxCell>
        <mxCell id="7H-lMW-HV1gVIsJ1tEVi-0" value="&lt;font style=&quot;font-size: 9px&quot;&gt;(Passed test)&lt;/font&gt;" style="text;html=1;strokeColor=none;fillColor=none;align=center;verticalAlign=middle;whiteSpace=wrap;overflow=hidden;fontSize=14;fontStyle=1;fontFamily=Courier New;" vertex="1" parent="GOsrpBzS1jB6Op-8hKka-1">
          <mxGeometry x="746" y="590" width="74" height="22" as="geometry" />
        </mxCell>
        <mxCell id="JIM6PPILb5vm8Y3L2-0Q-0" value="&lt;font style=&quot;font-size: 9px&quot;&gt;(Fixed ACD-1 C1)&lt;/font&gt;" style="text;html=1;strokeColor=none;fillColor=none;align=center;verticalAlign=middle;whiteSpace=wrap;overflow=hidden;fontSize=14;fontStyle=1;fontFamily=Courier New;" vertex="1" parent="GOsrpBzS1jB6Op-8hKka-1">
          <mxGeometry x="231.82" y="600" width="98.12" height="22" as="geometry" />
        </mxCell>
        <mxCell id="at7hXuUo2i2JYpNIdLbT-0" value="&lt;font style=&quot;font-size: 9px&quot;&gt;(Passed test)&lt;/font&gt;" style="text;html=1;strokeColor=none;fillColor=none;align=center;verticalAlign=middle;whiteSpace=wrap;overflow=hidden;fontSize=14;fontStyle=1;fontFamily=Courier New;" vertex="1" parent="GOsrpBzS1jB6Op-8hKka-1">
          <mxGeometry x="556" y="680" width="74" height="22" as="geometry" />
        </mxCell>
      </root>
    </mxGraphModel>
  </diagram>
  <diagram name="[Dev]Resolve conflic flow" id="ygldEo6sSkRZw6pQHOYM">
    <mxGraphModel dx="1374" dy="771" grid="1" gridSize="10" guides="1" tooltips="1" connect="1" arrows="1" fold="1" page="1" pageScale="1" pageWidth="850" pageHeight="1100" math="0" shadow="0">
      <root>
        <mxCell id="hrfX31-neD_8_fIQ_fTr-0" />
        <mxCell id="hrfX31-neD_8_fIQ_fTr-1" parent="hrfX31-neD_8_fIQ_fTr-0" />
        <UserObject label="Example diagram for a workflow similar to &quot;Git-flow&quot; :" link="https://nvie.com/posts/a-successful-git-branching-model/" id="hrfX31-neD_8_fIQ_fTr-2">
          <mxCell style="text;whiteSpace=wrap;html=1;fontStyle=1;fontSize=16;" vertex="1" parent="hrfX31-neD_8_fIQ_fTr-1">
            <mxGeometry x="55" y="50" width="427.75" height="20" as="geometry" />
          </mxCell>
        </UserObject>
        <mxCell id="hrfX31-neD_8_fIQ_fTr-5" value="ACD-1_resolve_conflict_dev" style="text;html=1;strokeColor=none;fillColor=none;align=center;verticalAlign=middle;whiteSpace=wrap;overflow=hidden;fontSize=14;fontStyle=1;fontFamily=Courier New;" vertex="1" parent="hrfX31-neD_8_fIQ_fTr-1">
          <mxGeometry x="450" y="177" width="230" height="42" as="geometry" />
        </mxCell>
        <mxCell id="hrfX31-neD_8_fIQ_fTr-6" value="dev" style="text;html=1;strokeColor=none;fillColor=none;align=center;verticalAlign=middle;whiteSpace=wrap;overflow=hidden;fontSize=14;fontStyle=1;fontFamily=Courier New;" vertex="1" parent="hrfX31-neD_8_fIQ_fTr-1">
          <mxGeometry x="695" y="97" width="60" height="42" as="geometry" />
        </mxCell>
        <mxCell id="hrfX31-neD_8_fIQ_fTr-17" value="ACD-1" style="text;html=1;strokeColor=none;fillColor=none;align=center;verticalAlign=middle;whiteSpace=wrap;overflow=hidden;fontSize=14;fontStyle=1;fontFamily=Courier New;" vertex="1" parent="hrfX31-neD_8_fIQ_fTr-1">
          <mxGeometry x="245.88" y="180" width="50" height="42" as="geometry" />
        </mxCell>
        <mxCell id="hrfX31-neD_8_fIQ_fTr-18" value="" style="edgeStyle=orthogonalEdgeStyle;rounded=0;html=1;jettySize=auto;orthogonalLoop=1;strokeWidth=4;endArrow=none;endFill=0;startArrow=none;" edge="1" parent="hrfX31-neD_8_fIQ_fTr-1" source="hrfX31-neD_8_fIQ_fTr-21">
          <mxGeometry x="310.63" y="238" as="geometry">
            <mxPoint x="268.38" y="238" as="sourcePoint" />
            <mxPoint x="269" y="420" as="targetPoint" />
            <Array as="points">
              <mxPoint x="268.88" y="298" />
              <mxPoint x="268.88" y="298" />
            </Array>
          </mxGeometry>
        </mxCell>
        <mxCell id="hrfX31-neD_8_fIQ_fTr-19" value="" style="edgeStyle=orthogonalEdgeStyle;rounded=0;html=1;jettySize=auto;orthogonalLoop=1;strokeWidth=4;endArrow=none;endFill=0;startArrow=none;" edge="1" parent="hrfX31-neD_8_fIQ_fTr-1" source="hrfX31-neD_8_fIQ_fTr-22">
          <mxGeometry x="766.75" y="139" as="geometry">
            <mxPoint x="724.5" y="139" as="sourcePoint" />
            <mxPoint x="725" y="1090" as="targetPoint" />
            <Array as="points">
              <mxPoint x="725" y="199" />
              <mxPoint x="725" y="199" />
            </Array>
          </mxGeometry>
        </mxCell>
        <mxCell id="hrfX31-neD_8_fIQ_fTr-21" value="" style="verticalLabelPosition=bottom;verticalAlign=top;html=1;strokeWidth=4;shape=mxgraph.flowchart.on-page_reference;plain-purple;gradientColor=none;strokeColor=#000000;fillColor=#D5E8D4;" vertex="1" parent="hrfX31-neD_8_fIQ_fTr-1">
          <mxGeometry x="255.88" y="550" width="30" height="30" as="geometry" />
        </mxCell>
        <mxCell id="hrfX31-neD_8_fIQ_fTr-22" value="" style="verticalLabelPosition=bottom;verticalAlign=top;html=1;strokeWidth=4;shape=mxgraph.flowchart.on-page_reference;plain-purple;gradientColor=none;strokeColor=#000000;fillColor=#D5E8D4;" vertex="1" parent="hrfX31-neD_8_fIQ_fTr-1">
          <mxGeometry x="710" y="680" width="30" height="30" as="geometry" />
        </mxCell>
        <mxCell id="hrfX31-neD_8_fIQ_fTr-23" value="" style="edgeStyle=orthogonalEdgeStyle;rounded=0;html=1;jettySize=auto;orthogonalLoop=1;strokeWidth=4;endArrow=none;endFill=0;startArrow=none;" edge="1" parent="hrfX31-neD_8_fIQ_fTr-1" target="hrfX31-neD_8_fIQ_fTr-22" source="hrfX31-neD_8_fIQ_fTr-55">
          <mxGeometry x="766.75" y="139" as="geometry">
            <mxPoint x="724.5" y="139" as="sourcePoint" />
            <mxPoint x="725" y="979" as="targetPoint" />
            <Array as="points" />
          </mxGeometry>
        </mxCell>
        <mxCell id="hrfX31-neD_8_fIQ_fTr-25" value="ACD-1 C1&amp;nbsp;" style="text;html=1;strokeColor=none;fillColor=none;align=center;verticalAlign=middle;whiteSpace=wrap;overflow=hidden;fontSize=14;fontStyle=1;fontFamily=Courier New;" vertex="1" parent="hrfX31-neD_8_fIQ_fTr-1">
          <mxGeometry x="280" y="270" width="80" height="42" as="geometry" />
        </mxCell>
        <mxCell id="hrfX31-neD_8_fIQ_fTr-26" value="ACD-1 C2 fix bug" style="text;html=1;strokeColor=none;fillColor=none;align=center;verticalAlign=middle;whiteSpace=wrap;overflow=hidden;fontSize=14;fontStyle=1;fontFamily=Courier New;" vertex="1" parent="hrfX31-neD_8_fIQ_fTr-1">
          <mxGeometry x="245.88" y="580" width="114.12" height="42" as="geometry" />
        </mxCell>
        <mxCell id="hrfX31-neD_8_fIQ_fTr-28" value="" style="endArrow=classic;html=1;strokeWidth=4;" edge="1" parent="hrfX31-neD_8_fIQ_fTr-1">
          <mxGeometry width="50" height="50" relative="1" as="geometry">
            <mxPoint x="269" y="229" as="sourcePoint" />
            <mxPoint x="269" y="288" as="targetPoint" />
          </mxGeometry>
        </mxCell>
        <mxCell id="hrfX31-neD_8_fIQ_fTr-29" value="" style="endArrow=classic;html=1;strokeWidth=4;exitX=1;exitY=0.5;exitDx=0;exitDy=0;exitPerimeter=0;entryX=0;entryY=0.5;entryDx=0;entryDy=0;entryPerimeter=0;" edge="1" parent="hrfX31-neD_8_fIQ_fTr-1" source="hrfX31-neD_8_fIQ_fTr-30" target="hrfX31-neD_8_fIQ_fTr-45">
          <mxGeometry width="50" height="50" relative="1" as="geometry">
            <mxPoint x="280" y="310" as="sourcePoint" />
            <mxPoint x="530" y="350" as="targetPoint" />
          </mxGeometry>
        </mxCell>
        <mxCell id="hrfX31-neD_8_fIQ_fTr-30" value="" style="verticalLabelPosition=bottom;verticalAlign=top;html=1;strokeWidth=4;shape=mxgraph.flowchart.on-page_reference;plain-purple;gradientColor=none;strokeColor=#000000;fillColor=#D5E8D4;" vertex="1" parent="hrfX31-neD_8_fIQ_fTr-1">
          <mxGeometry x="253.88" y="290" width="30" height="30" as="geometry" />
        </mxCell>
        <mxCell id="hrfX31-neD_8_fIQ_fTr-31" value="" style="endArrow=classic;html=1;strokeWidth=4;exitX=1;exitY=0.5;exitDx=0;exitDy=0;exitPerimeter=0;" edge="1" parent="hrfX31-neD_8_fIQ_fTr-1" source="hrfX31-neD_8_fIQ_fTr-21">
          <mxGeometry width="50" height="50" relative="1" as="geometry">
            <mxPoint x="283" y="460" as="sourcePoint" />
            <mxPoint x="510" y="600" as="targetPoint" />
          </mxGeometry>
        </mxCell>
        <mxCell id="hrfX31-neD_8_fIQ_fTr-34" value="ACD-XXX" style="text;html=1;strokeColor=none;fillColor=none;align=center;verticalAlign=middle;whiteSpace=wrap;overflow=hidden;fontSize=14;fontStyle=1;fontFamily=Courier New;" vertex="1" parent="hrfX31-neD_8_fIQ_fTr-1">
          <mxGeometry x="740" y="298" width="80" height="42" as="geometry" />
        </mxCell>
        <mxCell id="hrfX31-neD_8_fIQ_fTr-43" value="" style="endArrow=classic;html=1;strokeWidth=4;exitX=0;exitY=0.5;exitDx=0;exitDy=0;exitPerimeter=0;" edge="1" parent="hrfX31-neD_8_fIQ_fTr-1" source="hrfX31-neD_8_fIQ_fTr-21">
          <mxGeometry width="50" height="50" relative="1" as="geometry">
            <mxPoint x="400" y="420" as="sourcePoint" />
            <mxPoint x="170" y="650" as="targetPoint" />
          </mxGeometry>
        </mxCell>
        <mxCell id="hrfX31-neD_8_fIQ_fTr-44" value="" style="edgeStyle=orthogonalEdgeStyle;rounded=0;html=1;jettySize=auto;orthogonalLoop=1;strokeWidth=4;endArrow=none;endFill=0;startArrow=none;" edge="1" parent="hrfX31-neD_8_fIQ_fTr-1" source="hrfX31-neD_8_fIQ_fTr-57">
          <mxGeometry x="572.25" y="219" as="geometry">
            <mxPoint x="530" y="219" as="sourcePoint" />
            <mxPoint x="531" y="790" as="targetPoint" />
            <Array as="points">
              <mxPoint x="531" y="219" />
              <mxPoint x="531" y="455" />
            </Array>
          </mxGeometry>
        </mxCell>
        <mxCell id="hrfX31-neD_8_fIQ_fTr-45" value="" style="verticalLabelPosition=bottom;verticalAlign=top;html=1;strokeWidth=4;shape=mxgraph.flowchart.on-page_reference;plain-purple;gradientColor=none;strokeColor=#000000;fillColor=#D5E8D4;" vertex="1" parent="hrfX31-neD_8_fIQ_fTr-1">
          <mxGeometry x="516" y="340" width="30" height="30" as="geometry" />
        </mxCell>
        <mxCell id="hrfX31-neD_8_fIQ_fTr-48" value="ACD-1 C1" style="text;html=1;strokeColor=none;fillColor=none;align=center;verticalAlign=middle;whiteSpace=wrap;overflow=hidden;fontSize=14;fontStyle=1;fontFamily=Courier New;" vertex="1" parent="hrfX31-neD_8_fIQ_fTr-1">
          <mxGeometry x="550" y="334" width="80" height="42" as="geometry" />
        </mxCell>
        <mxCell id="hrfX31-neD_8_fIQ_fTr-24" value="" style="verticalLabelPosition=bottom;verticalAlign=top;html=1;strokeWidth=4;shape=mxgraph.flowchart.on-page_reference;plain-purple;gradientColor=none;strokeColor=#000000;fillColor=#D5E8D4;" vertex="1" parent="hrfX31-neD_8_fIQ_fTr-1">
          <mxGeometry x="710" y="300" width="30" height="30" as="geometry" />
        </mxCell>
        <mxCell id="hrfX31-neD_8_fIQ_fTr-49" value="" style="edgeStyle=orthogonalEdgeStyle;rounded=0;html=1;jettySize=auto;orthogonalLoop=1;strokeWidth=4;endArrow=none;endFill=0;" edge="1" parent="hrfX31-neD_8_fIQ_fTr-1" target="hrfX31-neD_8_fIQ_fTr-24">
          <mxGeometry x="766.75" y="139" as="geometry">
            <mxPoint x="724.5" y="139" as="sourcePoint" />
            <mxPoint x="725" y="610" as="targetPoint" />
            <Array as="points" />
          </mxGeometry>
        </mxCell>
        <mxCell id="hrfX31-neD_8_fIQ_fTr-50" value="" style="verticalLabelPosition=bottom;verticalAlign=top;html=1;strokeWidth=4;shape=mxgraph.flowchart.on-page_reference;plain-purple;gradientColor=none;strokeColor=#000000;fillColor=#D5E8D4;" vertex="1" parent="hrfX31-neD_8_fIQ_fTr-1">
          <mxGeometry x="516" y="430" width="30" height="30" as="geometry" />
        </mxCell>
        <mxCell id="hrfX31-neD_8_fIQ_fTr-51" value="" style="edgeStyle=orthogonalEdgeStyle;rounded=0;html=1;jettySize=auto;orthogonalLoop=1;strokeWidth=4;endArrow=none;endFill=0;startArrow=none;" edge="1" parent="hrfX31-neD_8_fIQ_fTr-1" source="hrfX31-neD_8_fIQ_fTr-45" target="hrfX31-neD_8_fIQ_fTr-50">
          <mxGeometry x="572.25" y="219" as="geometry">
            <mxPoint x="531" y="340" as="sourcePoint" />
            <mxPoint x="531" y="720" as="targetPoint" />
            <Array as="points" />
          </mxGeometry>
        </mxCell>
        <mxCell id="hrfX31-neD_8_fIQ_fTr-52" value="" style="curved=1;endArrow=classic;html=1;strokeWidth=4;exitX=0;exitY=0.5;exitDx=0;exitDy=0;exitPerimeter=0;" edge="1" parent="hrfX31-neD_8_fIQ_fTr-1" source="hrfX31-neD_8_fIQ_fTr-24">
          <mxGeometry width="50" height="50" relative="1" as="geometry">
            <mxPoint x="400" y="420" as="sourcePoint" />
            <mxPoint x="550" y="440" as="targetPoint" />
            <Array as="points">
              <mxPoint x="590" y="390" />
              <mxPoint x="680" y="380" />
            </Array>
          </mxGeometry>
        </mxCell>
        <mxCell id="hrfX31-neD_8_fIQ_fTr-53" value="ACD-2 C1 resolve_conflict" style="text;html=1;strokeColor=none;fillColor=none;align=center;verticalAlign=middle;whiteSpace=wrap;overflow=hidden;fontSize=14;fontStyle=1;fontFamily=Courier New;" vertex="1" parent="hrfX31-neD_8_fIQ_fTr-1">
          <mxGeometry x="550" y="440" width="130" height="42" as="geometry" />
        </mxCell>
        <mxCell id="hrfX31-neD_8_fIQ_fTr-54" value="" style="endArrow=classic;html=1;strokeWidth=4;entryX=0;entryY=0.5;entryDx=0;entryDy=0;entryPerimeter=0;" edge="1" parent="hrfX31-neD_8_fIQ_fTr-1" target="hrfX31-neD_8_fIQ_fTr-55">
          <mxGeometry width="50" height="50" relative="1" as="geometry">
            <mxPoint x="531" y="480" as="sourcePoint" />
            <mxPoint x="700" y="520" as="targetPoint" />
          </mxGeometry>
        </mxCell>
        <mxCell id="hrfX31-neD_8_fIQ_fTr-55" value="" style="verticalLabelPosition=bottom;verticalAlign=top;html=1;strokeWidth=4;shape=mxgraph.flowchart.on-page_reference;plain-purple;gradientColor=none;strokeColor=#000000;fillColor=#D5E8D4;" vertex="1" parent="hrfX31-neD_8_fIQ_fTr-1">
          <mxGeometry x="710" y="510" width="30" height="30" as="geometry" />
        </mxCell>
        <mxCell id="hrfX31-neD_8_fIQ_fTr-56" value="" style="edgeStyle=orthogonalEdgeStyle;rounded=0;html=1;jettySize=auto;orthogonalLoop=1;strokeWidth=4;endArrow=none;endFill=0;startArrow=none;" edge="1" parent="hrfX31-neD_8_fIQ_fTr-1" source="hrfX31-neD_8_fIQ_fTr-24" target="hrfX31-neD_8_fIQ_fTr-55">
          <mxGeometry x="766.75" y="139" as="geometry">
            <mxPoint x="725" y="330" as="sourcePoint" />
            <mxPoint x="725" y="610" as="targetPoint" />
            <Array as="points" />
          </mxGeometry>
        </mxCell>
        <mxCell id="hrfX31-neD_8_fIQ_fTr-57" value="" style="verticalLabelPosition=bottom;verticalAlign=top;html=1;strokeWidth=4;shape=mxgraph.flowchart.on-page_reference;plain-purple;gradientColor=none;strokeColor=#000000;fillColor=#D5E8D4;" vertex="1" parent="hrfX31-neD_8_fIQ_fTr-1">
          <mxGeometry x="516" y="592" width="30" height="30" as="geometry" />
        </mxCell>
        <mxCell id="hrfX31-neD_8_fIQ_fTr-58" value="" style="edgeStyle=orthogonalEdgeStyle;rounded=0;html=1;jettySize=auto;orthogonalLoop=1;strokeWidth=4;endArrow=none;endFill=0;startArrow=none;" edge="1" parent="hrfX31-neD_8_fIQ_fTr-1" source="hrfX31-neD_8_fIQ_fTr-50" target="hrfX31-neD_8_fIQ_fTr-57">
          <mxGeometry x="572.25" y="219" as="geometry">
            <mxPoint x="531" y="430" as="sourcePoint" />
            <mxPoint x="531" y="720" as="targetPoint" />
            <Array as="points" />
          </mxGeometry>
        </mxCell>
        <mxCell id="hrfX31-neD_8_fIQ_fTr-61" value="ACD-2 C2 resolve_conflict" style="text;html=1;strokeColor=none;fillColor=none;align=center;verticalAlign=middle;whiteSpace=wrap;overflow=hidden;fontSize=14;fontStyle=1;fontFamily=Courier New;" vertex="1" parent="hrfX31-neD_8_fIQ_fTr-1">
          <mxGeometry x="546" y="586" width="140" height="42" as="geometry" />
        </mxCell>
        <mxCell id="hrfX31-neD_8_fIQ_fTr-67" value="" style="endArrow=classic;html=1;strokeWidth=4;entryX=0;entryY=0.5;entryDx=0;entryDy=0;entryPerimeter=0;" edge="1" parent="hrfX31-neD_8_fIQ_fTr-1" target="hrfX31-neD_8_fIQ_fTr-22">
          <mxGeometry width="50" height="50" relative="1" as="geometry">
            <mxPoint x="530" y="650" as="sourcePoint" />
            <mxPoint x="705.5" y="695" as="targetPoint" />
          </mxGeometry>
        </mxCell>
        <mxCell id="hrfX31-neD_8_fIQ_fTr-68" value="ACD-2 C1 resolve_conflict" style="text;html=1;strokeColor=none;fillColor=none;align=center;verticalAlign=middle;whiteSpace=wrap;overflow=hidden;fontSize=14;fontStyle=1;fontFamily=Courier New;" vertex="1" parent="hrfX31-neD_8_fIQ_fTr-1">
          <mxGeometry x="740" y="529" width="130" height="42" as="geometry" />
        </mxCell>
        <mxCell id="hrfX31-neD_8_fIQ_fTr-69" value="ACD-2 C2 resolve_conflict" style="text;html=1;strokeColor=none;fillColor=none;align=center;verticalAlign=middle;whiteSpace=wrap;overflow=hidden;fontSize=14;fontStyle=1;fontFamily=Courier New;" vertex="1" parent="hrfX31-neD_8_fIQ_fTr-1">
          <mxGeometry x="735" y="700" width="140" height="42" as="geometry" />
        </mxCell>
        <mxCell id="hrfX31-neD_8_fIQ_fTr-71" value="int" style="text;html=1;strokeColor=none;fillColor=none;align=center;verticalAlign=middle;whiteSpace=wrap;overflow=hidden;fontSize=14;fontStyle=1;fontFamily=Courier New;" vertex="1" parent="hrfX31-neD_8_fIQ_fTr-1">
          <mxGeometry x="90" y="97" width="60" height="42" as="geometry" />
        </mxCell>
        <mxCell id="hrfX31-neD_8_fIQ_fTr-72" value="staging" style="text;html=1;strokeColor=none;fillColor=none;align=center;verticalAlign=middle;whiteSpace=wrap;overflow=hidden;fontSize=14;fontStyle=1;fontFamily=Courier New;" vertex="1" parent="hrfX31-neD_8_fIQ_fTr-1">
          <mxGeometry x="20" y="97" width="60" height="42" as="geometry" />
        </mxCell>
        <mxCell id="hrfX31-neD_8_fIQ_fTr-73" value="" style="edgeStyle=orthogonalEdgeStyle;rounded=0;html=1;jettySize=auto;orthogonalLoop=1;strokeWidth=4;endArrow=none;endFill=0;startArrow=none;" edge="1" parent="hrfX31-neD_8_fIQ_fTr-1">
          <mxGeometry x="161.25" y="79" as="geometry">
            <mxPoint x="119.5" y="620" as="sourcePoint" />
            <mxPoint x="119.5" y="1030" as="targetPoint" />
            <Array as="points">
              <mxPoint x="119.5" y="139" />
              <mxPoint x="119.5" y="139" />
            </Array>
          </mxGeometry>
        </mxCell>
        <mxCell id="hrfX31-neD_8_fIQ_fTr-74" value="" style="edgeStyle=orthogonalEdgeStyle;rounded=0;html=1;jettySize=auto;orthogonalLoop=1;strokeWidth=4;endArrow=none;endFill=0;startArrow=none;" edge="1" parent="hrfX31-neD_8_fIQ_fTr-1">
          <mxGeometry x="91.25" y="79" as="geometry">
            <mxPoint x="49.5" y="620" as="sourcePoint" />
            <mxPoint x="49.5" y="1030" as="targetPoint" />
            <Array as="points">
              <mxPoint x="49.5" y="139" />
              <mxPoint x="49.5" y="139" />
            </Array>
          </mxGeometry>
        </mxCell>
      </root>
    </mxGraphModel>
  </diagram>
  <diagram name="Depend" id="rWNNxmwirmDGXlMR4y7r">
    <mxGraphModel dx="1374" dy="771" grid="1" gridSize="10" guides="1" tooltips="1" connect="1" arrows="1" fold="1" page="1" pageScale="1" pageWidth="850" pageHeight="1100" math="0" shadow="0">
      <root>
        <mxCell id="D5PC56JtYcjarEG2KoJ8-0" />
        <mxCell id="D5PC56JtYcjarEG2KoJ8-1" parent="D5PC56JtYcjarEG2KoJ8-0" />
        <UserObject label="Example diagram for a workflow similar to &quot;Git-flow&quot; :" link="https://nvie.com/posts/a-successful-git-branching-model/" id="D5PC56JtYcjarEG2KoJ8-2">
          <mxCell style="text;whiteSpace=wrap;html=1;fontStyle=1;fontSize=16;" vertex="1" parent="D5PC56JtYcjarEG2KoJ8-1">
            <mxGeometry x="55" y="50" width="427.75" height="20" as="geometry" />
          </mxCell>
        </UserObject>
        <mxCell id="D5PC56JtYcjarEG2KoJ8-3" value="ACD-2" style="text;html=1;strokeColor=none;fillColor=none;align=center;verticalAlign=middle;whiteSpace=wrap;overflow=hidden;fontSize=14;fontStyle=1;fontFamily=Courier New;" vertex="1" parent="D5PC56JtYcjarEG2KoJ8-1">
          <mxGeometry x="496" y="177" width="70" height="42" as="geometry" />
        </mxCell>
        <mxCell id="D5PC56JtYcjarEG2KoJ8-5" value="ACD-1" style="text;html=1;strokeColor=none;fillColor=none;align=center;verticalAlign=middle;whiteSpace=wrap;overflow=hidden;fontSize=14;fontStyle=1;fontFamily=Courier New;" vertex="1" parent="D5PC56JtYcjarEG2KoJ8-1">
          <mxGeometry x="245.88" y="180" width="50" height="42" as="geometry" />
        </mxCell>
        <mxCell id="D5PC56JtYcjarEG2KoJ8-6" value="" style="edgeStyle=orthogonalEdgeStyle;rounded=0;html=1;jettySize=auto;orthogonalLoop=1;strokeWidth=4;endArrow=none;endFill=0;startArrow=none;" edge="1" parent="D5PC56JtYcjarEG2KoJ8-1" source="D5PC56JtYcjarEG2KoJ8-45">
          <mxGeometry x="310.63" y="238" as="geometry">
            <mxPoint x="269" y="810" as="sourcePoint" />
            <mxPoint x="269" y="420" as="targetPoint" />
            <Array as="points">
              <mxPoint x="268.88" y="298" />
              <mxPoint x="268.88" y="298" />
            </Array>
          </mxGeometry>
        </mxCell>
        <mxCell id="D5PC56JtYcjarEG2KoJ8-8" value="" style="verticalLabelPosition=bottom;verticalAlign=top;html=1;strokeWidth=4;shape=mxgraph.flowchart.on-page_reference;plain-purple;gradientColor=none;strokeColor=#000000;fillColor=#D5E8D4;" vertex="1" parent="D5PC56JtYcjarEG2KoJ8-1">
          <mxGeometry x="255.88" y="550" width="30" height="30" as="geometry" />
        </mxCell>
        <mxCell id="D5PC56JtYcjarEG2KoJ8-11" value="ACD-1 C1&amp;nbsp;" style="text;html=1;strokeColor=none;fillColor=none;align=center;verticalAlign=middle;whiteSpace=wrap;overflow=hidden;fontSize=14;fontStyle=1;fontFamily=Courier New;" vertex="1" parent="D5PC56JtYcjarEG2KoJ8-1">
          <mxGeometry x="280" y="270" width="80" height="42" as="geometry" />
        </mxCell>
        <mxCell id="D5PC56JtYcjarEG2KoJ8-13" value="" style="endArrow=classic;html=1;strokeWidth=4;" edge="1" parent="D5PC56JtYcjarEG2KoJ8-1">
          <mxGeometry width="50" height="50" relative="1" as="geometry">
            <mxPoint x="269" y="229" as="sourcePoint" />
            <mxPoint x="269" y="288" as="targetPoint" />
          </mxGeometry>
        </mxCell>
        <mxCell id="D5PC56JtYcjarEG2KoJ8-15" value="" style="verticalLabelPosition=bottom;verticalAlign=top;html=1;strokeWidth=4;shape=mxgraph.flowchart.on-page_reference;plain-purple;gradientColor=none;strokeColor=#000000;fillColor=#D5E8D4;" vertex="1" parent="D5PC56JtYcjarEG2KoJ8-1">
          <mxGeometry x="253.88" y="290" width="30" height="30" as="geometry" />
        </mxCell>
        <mxCell id="D5PC56JtYcjarEG2KoJ8-19" value="" style="edgeStyle=orthogonalEdgeStyle;rounded=0;html=1;jettySize=auto;orthogonalLoop=1;strokeWidth=4;endArrow=none;endFill=0;startArrow=none;" edge="1" parent="D5PC56JtYcjarEG2KoJ8-1">
          <mxGeometry x="572.25" y="219" as="geometry">
            <mxPoint x="531" y="592" as="sourcePoint" />
            <mxPoint x="531" y="790" as="targetPoint" />
            <Array as="points">
              <mxPoint x="531" y="219" />
              <mxPoint x="531" y="455" />
            </Array>
          </mxGeometry>
        </mxCell>
        <mxCell id="D5PC56JtYcjarEG2KoJ8-20" value="" style="verticalLabelPosition=bottom;verticalAlign=top;html=1;strokeWidth=4;shape=mxgraph.flowchart.on-page_reference;plain-purple;gradientColor=none;strokeColor=#000000;fillColor=#D5E8D4;" vertex="1" parent="D5PC56JtYcjarEG2KoJ8-1">
          <mxGeometry x="516" y="340" width="30" height="30" as="geometry" />
        </mxCell>
        <mxCell id="D5PC56JtYcjarEG2KoJ8-21" value="ACD-2 C1" style="text;html=1;strokeColor=none;fillColor=none;align=center;verticalAlign=middle;whiteSpace=wrap;overflow=hidden;fontSize=14;fontStyle=1;fontFamily=Courier New;" vertex="1" parent="D5PC56JtYcjarEG2KoJ8-1">
          <mxGeometry x="550" y="334" width="80" height="42" as="geometry" />
        </mxCell>
        <mxCell id="D5PC56JtYcjarEG2KoJ8-25" value="" style="edgeStyle=orthogonalEdgeStyle;rounded=0;html=1;jettySize=auto;orthogonalLoop=1;strokeWidth=4;endArrow=none;endFill=0;startArrow=none;" edge="1" parent="D5PC56JtYcjarEG2KoJ8-1" source="D5PC56JtYcjarEG2KoJ8-20">
          <mxGeometry x="572.25" y="219" as="geometry">
            <mxPoint x="531" y="340" as="sourcePoint" />
            <mxPoint x="531" y="430" as="targetPoint" />
            <Array as="points" />
          </mxGeometry>
        </mxCell>
        <mxCell id="D5PC56JtYcjarEG2KoJ8-32" value="" style="edgeStyle=orthogonalEdgeStyle;rounded=0;html=1;jettySize=auto;orthogonalLoop=1;strokeWidth=4;endArrow=none;endFill=0;startArrow=none;" edge="1" parent="D5PC56JtYcjarEG2KoJ8-1">
          <mxGeometry x="572.25" y="219" as="geometry">
            <mxPoint x="531" y="460" as="sourcePoint" />
            <mxPoint x="531" y="592" as="targetPoint" />
            <Array as="points" />
          </mxGeometry>
        </mxCell>
        <mxCell id="D5PC56JtYcjarEG2KoJ8-37" value="int" style="text;html=1;strokeColor=none;fillColor=none;align=center;verticalAlign=middle;whiteSpace=wrap;overflow=hidden;fontSize=14;fontStyle=1;fontFamily=Courier New;" vertex="1" parent="D5PC56JtYcjarEG2KoJ8-1">
          <mxGeometry x="90" y="97" width="60" height="42" as="geometry" />
        </mxCell>
        <mxCell id="D5PC56JtYcjarEG2KoJ8-38" value="staging" style="text;html=1;strokeColor=none;fillColor=none;align=center;verticalAlign=middle;whiteSpace=wrap;overflow=hidden;fontSize=14;fontStyle=1;fontFamily=Courier New;" vertex="1" parent="D5PC56JtYcjarEG2KoJ8-1">
          <mxGeometry x="20" y="97" width="60" height="42" as="geometry" />
        </mxCell>
        <mxCell id="D5PC56JtYcjarEG2KoJ8-39" value="" style="edgeStyle=orthogonalEdgeStyle;rounded=0;html=1;jettySize=auto;orthogonalLoop=1;strokeWidth=4;endArrow=none;endFill=0;startArrow=none;" edge="1" parent="D5PC56JtYcjarEG2KoJ8-1">
          <mxGeometry x="161.25" y="79" as="geometry">
            <mxPoint x="119.5" y="620" as="sourcePoint" />
            <mxPoint x="120" y="830" as="targetPoint" />
            <Array as="points">
              <mxPoint x="119.5" y="139" />
              <mxPoint x="119.5" y="139" />
            </Array>
          </mxGeometry>
        </mxCell>
        <mxCell id="D5PC56JtYcjarEG2KoJ8-40" value="" style="edgeStyle=orthogonalEdgeStyle;rounded=0;html=1;jettySize=auto;orthogonalLoop=1;strokeWidth=4;endArrow=none;endFill=0;startArrow=none;" edge="1" parent="D5PC56JtYcjarEG2KoJ8-1">
          <mxGeometry x="91.25" y="79" as="geometry">
            <mxPoint x="49.5" y="620" as="sourcePoint" />
            <mxPoint x="50" y="830" as="targetPoint" />
            <Array as="points">
              <mxPoint x="49.5" y="139" />
              <mxPoint x="49.5" y="139" />
            </Array>
          </mxGeometry>
        </mxCell>
        <mxCell id="D5PC56JtYcjarEG2KoJ8-41" value="" style="edgeStyle=orthogonalEdgeStyle;rounded=0;html=1;jettySize=auto;orthogonalLoop=1;strokeWidth=4;endArrow=none;endFill=0;startArrow=none;" edge="1" parent="D5PC56JtYcjarEG2KoJ8-1">
          <mxGeometry x="221.75" y="79" as="geometry">
            <mxPoint x="180" y="620" as="sourcePoint" />
            <mxPoint x="180" y="830" as="targetPoint" />
            <Array as="points">
              <mxPoint x="180" y="139" />
              <mxPoint x="180" y="139" />
            </Array>
          </mxGeometry>
        </mxCell>
        <mxCell id="D5PC56JtYcjarEG2KoJ8-42" value="dev" style="text;html=1;strokeColor=none;fillColor=none;align=center;verticalAlign=middle;whiteSpace=wrap;overflow=hidden;fontSize=14;fontStyle=1;fontFamily=Courier New;" vertex="1" parent="D5PC56JtYcjarEG2KoJ8-1">
          <mxGeometry x="150" y="97" width="60" height="42" as="geometry" />
        </mxCell>
        <mxCell id="D5PC56JtYcjarEG2KoJ8-43" value="" style="endArrow=classic;html=1;strokeWidth=4;exitX=0;exitY=0.5;exitDx=0;exitDy=0;exitPerimeter=0;entryX=1;entryY=0.5;entryDx=0;entryDy=0;entryPerimeter=0;" edge="1" parent="D5PC56JtYcjarEG2KoJ8-1" source="D5PC56JtYcjarEG2KoJ8-20" target="D5PC56JtYcjarEG2KoJ8-8">
          <mxGeometry width="50" height="50" relative="1" as="geometry">
            <mxPoint x="670" y="470" as="sourcePoint" />
            <mxPoint x="720" y="420" as="targetPoint" />
          </mxGeometry>
        </mxCell>
        <mxCell id="D5PC56JtYcjarEG2KoJ8-44" value="Merged ACD-2 into ACD-1" style="text;html=1;strokeColor=none;fillColor=none;align=center;verticalAlign=middle;whiteSpace=wrap;overflow=hidden;fontSize=14;fontStyle=1;fontFamily=Courier New;" vertex="1" parent="D5PC56JtYcjarEG2KoJ8-1">
          <mxGeometry x="285.88" y="560" width="124.12" height="42" as="geometry" />
        </mxCell>
        <mxCell id="D5PC56JtYcjarEG2KoJ8-45" value="" style="verticalLabelPosition=bottom;verticalAlign=top;html=1;strokeWidth=4;shape=mxgraph.flowchart.on-page_reference;plain-purple;gradientColor=none;strokeColor=#000000;fillColor=#D5E8D4;" vertex="1" parent="D5PC56JtYcjarEG2KoJ8-1">
          <mxGeometry x="253.88" y="660" width="30" height="30" as="geometry" />
        </mxCell>
        <mxCell id="D5PC56JtYcjarEG2KoJ8-46" value="" style="edgeStyle=orthogonalEdgeStyle;rounded=0;html=1;jettySize=auto;orthogonalLoop=1;strokeWidth=4;endArrow=none;endFill=0;startArrow=none;" edge="1" parent="D5PC56JtYcjarEG2KoJ8-1" target="D5PC56JtYcjarEG2KoJ8-45">
          <mxGeometry x="310.63" y="238" as="geometry">
            <mxPoint x="269" y="810" as="sourcePoint" />
            <mxPoint x="269" y="420" as="targetPoint" />
            <Array as="points" />
          </mxGeometry>
        </mxCell>
        <mxCell id="D5PC56JtYcjarEG2KoJ8-47" value="ACD-1 C3&amp;nbsp;" style="text;html=1;strokeColor=none;fillColor=none;align=center;verticalAlign=middle;whiteSpace=wrap;overflow=hidden;fontSize=14;fontStyle=1;fontFamily=Courier New;" vertex="1" parent="D5PC56JtYcjarEG2KoJ8-1">
          <mxGeometry x="295.88" y="654" width="80" height="42" as="geometry" />
        </mxCell>
        <mxCell id="D5PC56JtYcjarEG2KoJ8-48" value="" style="endArrow=classic;html=1;strokeWidth=4;" edge="1" parent="D5PC56JtYcjarEG2KoJ8-1">
          <mxGeometry width="50" height="50" relative="1" as="geometry">
            <mxPoint x="270" y="730" as="sourcePoint" />
            <mxPoint x="190" y="770" as="targetPoint" />
          </mxGeometry>
        </mxCell>
      </root>
    </mxGraphModel>
  </diagram>
  <diagram name="[Int]Resolve conflic flow" id="Esy2eD790Qrpv_Lg_2j3">
    <mxGraphModel dx="1374" dy="714" grid="1" gridSize="10" guides="1" tooltips="1" connect="1" arrows="1" fold="1" page="1" pageScale="1" pageWidth="850" pageHeight="1100" math="0" shadow="0">
      <root>
        <mxCell id="tNWg404wOYZjIx01e15U-0" />
        <mxCell id="tNWg404wOYZjIx01e15U-1" parent="tNWg404wOYZjIx01e15U-0" />
        <UserObject label="Example diagram for a workflow similar to &quot;Git-flow&quot; :" link="https://nvie.com/posts/a-successful-git-branching-model/" id="tNWg404wOYZjIx01e15U-2">
          <mxCell style="text;whiteSpace=wrap;html=1;fontStyle=1;fontSize=16;" vertex="1" parent="tNWg404wOYZjIx01e15U-1">
            <mxGeometry x="55" y="50" width="427.75" height="20" as="geometry" />
          </mxCell>
        </UserObject>
        <mxCell id="tNWg404wOYZjIx01e15U-3" value="ACD-1_resolve_conflict_int" style="text;html=1;strokeColor=none;fillColor=none;align=center;verticalAlign=middle;whiteSpace=wrap;overflow=hidden;fontSize=14;fontStyle=1;fontFamily=Courier New;" vertex="1" parent="tNWg404wOYZjIx01e15U-1">
          <mxGeometry x="450" y="177" width="230" height="42" as="geometry" />
        </mxCell>
        <mxCell id="tNWg404wOYZjIx01e15U-4" value="int" style="text;html=1;strokeColor=none;fillColor=none;align=center;verticalAlign=middle;whiteSpace=wrap;overflow=hidden;fontSize=14;fontStyle=1;fontFamily=Courier New;" vertex="1" parent="tNWg404wOYZjIx01e15U-1">
          <mxGeometry x="695" y="97" width="60" height="42" as="geometry" />
        </mxCell>
        <mxCell id="tNWg404wOYZjIx01e15U-5" value="ACD-1" style="text;html=1;strokeColor=none;fillColor=none;align=center;verticalAlign=middle;whiteSpace=wrap;overflow=hidden;fontSize=14;fontStyle=1;fontFamily=Courier New;" vertex="1" parent="tNWg404wOYZjIx01e15U-1">
          <mxGeometry x="245.88" y="180" width="50" height="42" as="geometry" />
        </mxCell>
        <mxCell id="tNWg404wOYZjIx01e15U-6" value="" style="edgeStyle=orthogonalEdgeStyle;rounded=0;html=1;jettySize=auto;orthogonalLoop=1;strokeWidth=4;endArrow=none;endFill=0;startArrow=none;" edge="1" parent="tNWg404wOYZjIx01e15U-1" source="tNWg404wOYZjIx01e15U-8">
          <mxGeometry x="310.63" y="238" as="geometry">
            <mxPoint x="268.38" y="238" as="sourcePoint" />
            <mxPoint x="269" y="420" as="targetPoint" />
            <Array as="points">
              <mxPoint x="268.88" y="298" />
              <mxPoint x="268.88" y="298" />
            </Array>
          </mxGeometry>
        </mxCell>
        <mxCell id="tNWg404wOYZjIx01e15U-7" value="" style="edgeStyle=orthogonalEdgeStyle;rounded=0;html=1;jettySize=auto;orthogonalLoop=1;strokeWidth=4;endArrow=none;endFill=0;startArrow=none;" edge="1" parent="tNWg404wOYZjIx01e15U-1" source="tNWg404wOYZjIx01e15U-9">
          <mxGeometry x="766.75" y="139" as="geometry">
            <mxPoint x="724.5" y="139" as="sourcePoint" />
            <mxPoint x="725" y="1090" as="targetPoint" />
            <Array as="points">
              <mxPoint x="725" y="199" />
              <mxPoint x="725" y="199" />
            </Array>
          </mxGeometry>
        </mxCell>
        <mxCell id="tNWg404wOYZjIx01e15U-8" value="" style="verticalLabelPosition=bottom;verticalAlign=top;html=1;strokeWidth=4;shape=mxgraph.flowchart.on-page_reference;plain-purple;gradientColor=none;strokeColor=#000000;fillColor=#D5E8D4;" vertex="1" parent="tNWg404wOYZjIx01e15U-1">
          <mxGeometry x="255.88" y="550" width="30" height="30" as="geometry" />
        </mxCell>
        <mxCell id="tNWg404wOYZjIx01e15U-9" value="" style="verticalLabelPosition=bottom;verticalAlign=top;html=1;strokeWidth=4;shape=mxgraph.flowchart.on-page_reference;plain-purple;gradientColor=none;strokeColor=#000000;fillColor=#D5E8D4;" vertex="1" parent="tNWg404wOYZjIx01e15U-1">
          <mxGeometry x="710" y="680" width="30" height="30" as="geometry" />
        </mxCell>
        <mxCell id="tNWg404wOYZjIx01e15U-10" value="" style="edgeStyle=orthogonalEdgeStyle;rounded=0;html=1;jettySize=auto;orthogonalLoop=1;strokeWidth=4;endArrow=none;endFill=0;startArrow=none;" edge="1" parent="tNWg404wOYZjIx01e15U-1" source="tNWg404wOYZjIx01e15U-29" target="tNWg404wOYZjIx01e15U-9">
          <mxGeometry x="766.75" y="139" as="geometry">
            <mxPoint x="724.5" y="139" as="sourcePoint" />
            <mxPoint x="725" y="979" as="targetPoint" />
            <Array as="points" />
          </mxGeometry>
        </mxCell>
        <mxCell id="tNWg404wOYZjIx01e15U-11" value="ACD-1 C1&amp;nbsp;" style="text;html=1;strokeColor=none;fillColor=none;align=center;verticalAlign=middle;whiteSpace=wrap;overflow=hidden;fontSize=14;fontStyle=1;fontFamily=Courier New;" vertex="1" parent="tNWg404wOYZjIx01e15U-1">
          <mxGeometry x="280" y="270" width="80" height="42" as="geometry" />
        </mxCell>
        <mxCell id="tNWg404wOYZjIx01e15U-12" value="ACD-1 C2 fix bug" style="text;html=1;strokeColor=none;fillColor=none;align=center;verticalAlign=middle;whiteSpace=wrap;overflow=hidden;fontSize=14;fontStyle=1;fontFamily=Courier New;" vertex="1" parent="tNWg404wOYZjIx01e15U-1">
          <mxGeometry x="245.88" y="580" width="114.12" height="42" as="geometry" />
        </mxCell>
        <mxCell id="tNWg404wOYZjIx01e15U-13" value="" style="endArrow=classic;html=1;strokeWidth=4;" edge="1" parent="tNWg404wOYZjIx01e15U-1">
          <mxGeometry width="50" height="50" relative="1" as="geometry">
            <mxPoint x="269" y="229" as="sourcePoint" />
            <mxPoint x="269" y="288" as="targetPoint" />
          </mxGeometry>
        </mxCell>
        <mxCell id="tNWg404wOYZjIx01e15U-14" value="" style="endArrow=classic;html=1;strokeWidth=4;exitX=1;exitY=0.5;exitDx=0;exitDy=0;exitPerimeter=0;entryX=0;entryY=0.5;entryDx=0;entryDy=0;entryPerimeter=0;" edge="1" parent="tNWg404wOYZjIx01e15U-1" source="tNWg404wOYZjIx01e15U-15" target="tNWg404wOYZjIx01e15U-20">
          <mxGeometry width="50" height="50" relative="1" as="geometry">
            <mxPoint x="280" y="310" as="sourcePoint" />
            <mxPoint x="530" y="350" as="targetPoint" />
          </mxGeometry>
        </mxCell>
        <mxCell id="tNWg404wOYZjIx01e15U-15" value="" style="verticalLabelPosition=bottom;verticalAlign=top;html=1;strokeWidth=4;shape=mxgraph.flowchart.on-page_reference;plain-purple;gradientColor=none;strokeColor=#000000;fillColor=#D5E8D4;" vertex="1" parent="tNWg404wOYZjIx01e15U-1">
          <mxGeometry x="253.88" y="290" width="30" height="30" as="geometry" />
        </mxCell>
        <mxCell id="tNWg404wOYZjIx01e15U-16" value="" style="endArrow=classic;html=1;strokeWidth=4;exitX=1;exitY=0.5;exitDx=0;exitDy=0;exitPerimeter=0;" edge="1" parent="tNWg404wOYZjIx01e15U-1" source="tNWg404wOYZjIx01e15U-8">
          <mxGeometry width="50" height="50" relative="1" as="geometry">
            <mxPoint x="283" y="460" as="sourcePoint" />
            <mxPoint x="510" y="600" as="targetPoint" />
          </mxGeometry>
        </mxCell>
        <mxCell id="tNWg404wOYZjIx01e15U-17" value="ACD-XXX" style="text;html=1;strokeColor=none;fillColor=none;align=center;verticalAlign=middle;whiteSpace=wrap;overflow=hidden;fontSize=14;fontStyle=1;fontFamily=Courier New;" vertex="1" parent="tNWg404wOYZjIx01e15U-1">
          <mxGeometry x="740" y="298" width="80" height="42" as="geometry" />
        </mxCell>
        <mxCell id="tNWg404wOYZjIx01e15U-18" value="" style="endArrow=classic;html=1;strokeWidth=4;exitX=0;exitY=0.5;exitDx=0;exitDy=0;exitPerimeter=0;" edge="1" parent="tNWg404wOYZjIx01e15U-1" source="tNWg404wOYZjIx01e15U-8">
          <mxGeometry width="50" height="50" relative="1" as="geometry">
            <mxPoint x="400" y="420" as="sourcePoint" />
            <mxPoint x="170" y="650" as="targetPoint" />
          </mxGeometry>
        </mxCell>
        <mxCell id="tNWg404wOYZjIx01e15U-19" value="" style="edgeStyle=orthogonalEdgeStyle;rounded=0;html=1;jettySize=auto;orthogonalLoop=1;strokeWidth=4;endArrow=none;endFill=0;startArrow=none;" edge="1" parent="tNWg404wOYZjIx01e15U-1" source="tNWg404wOYZjIx01e15U-31">
          <mxGeometry x="572.25" y="219" as="geometry">
            <mxPoint x="530" y="219" as="sourcePoint" />
            <mxPoint x="531" y="790" as="targetPoint" />
            <Array as="points">
              <mxPoint x="531" y="219" />
              <mxPoint x="531" y="455" />
            </Array>
          </mxGeometry>
        </mxCell>
        <mxCell id="tNWg404wOYZjIx01e15U-20" value="" style="verticalLabelPosition=bottom;verticalAlign=top;html=1;strokeWidth=4;shape=mxgraph.flowchart.on-page_reference;plain-purple;gradientColor=none;strokeColor=#000000;fillColor=#D5E8D4;" vertex="1" parent="tNWg404wOYZjIx01e15U-1">
          <mxGeometry x="516" y="340" width="30" height="30" as="geometry" />
        </mxCell>
        <mxCell id="tNWg404wOYZjIx01e15U-21" value="ACD-1 C1" style="text;html=1;strokeColor=none;fillColor=none;align=center;verticalAlign=middle;whiteSpace=wrap;overflow=hidden;fontSize=14;fontStyle=1;fontFamily=Courier New;" vertex="1" parent="tNWg404wOYZjIx01e15U-1">
          <mxGeometry x="550" y="334" width="80" height="42" as="geometry" />
        </mxCell>
        <mxCell id="tNWg404wOYZjIx01e15U-22" value="" style="verticalLabelPosition=bottom;verticalAlign=top;html=1;strokeWidth=4;shape=mxgraph.flowchart.on-page_reference;plain-purple;gradientColor=none;strokeColor=#000000;fillColor=#D5E8D4;" vertex="1" parent="tNWg404wOYZjIx01e15U-1">
          <mxGeometry x="710" y="300" width="30" height="30" as="geometry" />
        </mxCell>
        <mxCell id="tNWg404wOYZjIx01e15U-23" value="" style="edgeStyle=orthogonalEdgeStyle;rounded=0;html=1;jettySize=auto;orthogonalLoop=1;strokeWidth=4;endArrow=none;endFill=0;" edge="1" parent="tNWg404wOYZjIx01e15U-1" target="tNWg404wOYZjIx01e15U-22">
          <mxGeometry x="766.75" y="139" as="geometry">
            <mxPoint x="724.5" y="139" as="sourcePoint" />
            <mxPoint x="725" y="610" as="targetPoint" />
            <Array as="points" />
          </mxGeometry>
        </mxCell>
        <mxCell id="tNWg404wOYZjIx01e15U-24" value="" style="verticalLabelPosition=bottom;verticalAlign=top;html=1;strokeWidth=4;shape=mxgraph.flowchart.on-page_reference;plain-purple;gradientColor=none;strokeColor=#000000;fillColor=#D5E8D4;" vertex="1" parent="tNWg404wOYZjIx01e15U-1">
          <mxGeometry x="516" y="430" width="30" height="30" as="geometry" />
        </mxCell>
        <mxCell id="tNWg404wOYZjIx01e15U-25" value="" style="edgeStyle=orthogonalEdgeStyle;rounded=0;html=1;jettySize=auto;orthogonalLoop=1;strokeWidth=4;endArrow=none;endFill=0;startArrow=none;" edge="1" parent="tNWg404wOYZjIx01e15U-1" source="tNWg404wOYZjIx01e15U-20" target="tNWg404wOYZjIx01e15U-24">
          <mxGeometry x="572.25" y="219" as="geometry">
            <mxPoint x="531" y="340" as="sourcePoint" />
            <mxPoint x="531" y="720" as="targetPoint" />
            <Array as="points" />
          </mxGeometry>
        </mxCell>
        <mxCell id="tNWg404wOYZjIx01e15U-26" value="" style="curved=1;endArrow=classic;html=1;strokeWidth=4;exitX=0;exitY=0.5;exitDx=0;exitDy=0;exitPerimeter=0;" edge="1" parent="tNWg404wOYZjIx01e15U-1" source="tNWg404wOYZjIx01e15U-22">
          <mxGeometry width="50" height="50" relative="1" as="geometry">
            <mxPoint x="400" y="420" as="sourcePoint" />
            <mxPoint x="550" y="440" as="targetPoint" />
            <Array as="points">
              <mxPoint x="590" y="390" />
              <mxPoint x="680" y="380" />
            </Array>
          </mxGeometry>
        </mxCell>
        <mxCell id="tNWg404wOYZjIx01e15U-27" value="ACD-2 C1 resolve_conflict" style="text;html=1;strokeColor=none;fillColor=none;align=center;verticalAlign=middle;whiteSpace=wrap;overflow=hidden;fontSize=14;fontStyle=1;fontFamily=Courier New;" vertex="1" parent="tNWg404wOYZjIx01e15U-1">
          <mxGeometry x="550" y="440" width="130" height="42" as="geometry" />
        </mxCell>
        <mxCell id="tNWg404wOYZjIx01e15U-28" value="" style="endArrow=classic;html=1;strokeWidth=4;entryX=0;entryY=0.5;entryDx=0;entryDy=0;entryPerimeter=0;" edge="1" parent="tNWg404wOYZjIx01e15U-1" target="tNWg404wOYZjIx01e15U-29">
          <mxGeometry width="50" height="50" relative="1" as="geometry">
            <mxPoint x="531" y="480" as="sourcePoint" />
            <mxPoint x="700" y="520" as="targetPoint" />
          </mxGeometry>
        </mxCell>
        <mxCell id="tNWg404wOYZjIx01e15U-29" value="" style="verticalLabelPosition=bottom;verticalAlign=top;html=1;strokeWidth=4;shape=mxgraph.flowchart.on-page_reference;plain-purple;gradientColor=none;strokeColor=#000000;fillColor=#D5E8D4;" vertex="1" parent="tNWg404wOYZjIx01e15U-1">
          <mxGeometry x="710" y="510" width="30" height="30" as="geometry" />
        </mxCell>
        <mxCell id="tNWg404wOYZjIx01e15U-30" value="" style="edgeStyle=orthogonalEdgeStyle;rounded=0;html=1;jettySize=auto;orthogonalLoop=1;strokeWidth=4;endArrow=none;endFill=0;startArrow=none;" edge="1" parent="tNWg404wOYZjIx01e15U-1" source="tNWg404wOYZjIx01e15U-22" target="tNWg404wOYZjIx01e15U-29">
          <mxGeometry x="766.75" y="139" as="geometry">
            <mxPoint x="725" y="330" as="sourcePoint" />
            <mxPoint x="725" y="610" as="targetPoint" />
            <Array as="points" />
          </mxGeometry>
        </mxCell>
        <mxCell id="tNWg404wOYZjIx01e15U-31" value="" style="verticalLabelPosition=bottom;verticalAlign=top;html=1;strokeWidth=4;shape=mxgraph.flowchart.on-page_reference;plain-purple;gradientColor=none;strokeColor=#000000;fillColor=#D5E8D4;" vertex="1" parent="tNWg404wOYZjIx01e15U-1">
          <mxGeometry x="516" y="592" width="30" height="30" as="geometry" />
        </mxCell>
        <mxCell id="tNWg404wOYZjIx01e15U-32" value="" style="edgeStyle=orthogonalEdgeStyle;rounded=0;html=1;jettySize=auto;orthogonalLoop=1;strokeWidth=4;endArrow=none;endFill=0;startArrow=none;" edge="1" parent="tNWg404wOYZjIx01e15U-1" source="tNWg404wOYZjIx01e15U-24" target="tNWg404wOYZjIx01e15U-31">
          <mxGeometry x="572.25" y="219" as="geometry">
            <mxPoint x="531" y="430" as="sourcePoint" />
            <mxPoint x="531" y="720" as="targetPoint" />
            <Array as="points" />
          </mxGeometry>
        </mxCell>
        <mxCell id="tNWg404wOYZjIx01e15U-33" value="ACD-2 C2 resolve_conflict" style="text;html=1;strokeColor=none;fillColor=none;align=center;verticalAlign=middle;whiteSpace=wrap;overflow=hidden;fontSize=14;fontStyle=1;fontFamily=Courier New;" vertex="1" parent="tNWg404wOYZjIx01e15U-1">
          <mxGeometry x="546" y="586" width="140" height="42" as="geometry" />
        </mxCell>
        <mxCell id="tNWg404wOYZjIx01e15U-34" value="" style="endArrow=classic;html=1;strokeWidth=4;entryX=0;entryY=0.5;entryDx=0;entryDy=0;entryPerimeter=0;" edge="1" parent="tNWg404wOYZjIx01e15U-1" target="tNWg404wOYZjIx01e15U-9">
          <mxGeometry width="50" height="50" relative="1" as="geometry">
            <mxPoint x="530" y="650" as="sourcePoint" />
            <mxPoint x="705.5" y="695" as="targetPoint" />
          </mxGeometry>
        </mxCell>
        <mxCell id="tNWg404wOYZjIx01e15U-35" value="ACD-2 C1 resolve_conflict" style="text;html=1;strokeColor=none;fillColor=none;align=center;verticalAlign=middle;whiteSpace=wrap;overflow=hidden;fontSize=14;fontStyle=1;fontFamily=Courier New;" vertex="1" parent="tNWg404wOYZjIx01e15U-1">
          <mxGeometry x="740" y="529" width="130" height="42" as="geometry" />
        </mxCell>
        <mxCell id="tNWg404wOYZjIx01e15U-36" value="ACD-2 C2 resolve_conflict" style="text;html=1;strokeColor=none;fillColor=none;align=center;verticalAlign=middle;whiteSpace=wrap;overflow=hidden;fontSize=14;fontStyle=1;fontFamily=Courier New;" vertex="1" parent="tNWg404wOYZjIx01e15U-1">
          <mxGeometry x="735" y="700" width="140" height="42" as="geometry" />
        </mxCell>
        <mxCell id="tNWg404wOYZjIx01e15U-38" value="staging" style="text;html=1;strokeColor=none;fillColor=none;align=center;verticalAlign=middle;whiteSpace=wrap;overflow=hidden;fontSize=14;fontStyle=1;fontFamily=Courier New;" vertex="1" parent="tNWg404wOYZjIx01e15U-1">
          <mxGeometry x="110" y="97" width="60" height="42" as="geometry" />
        </mxCell>
        <mxCell id="tNWg404wOYZjIx01e15U-40" value="" style="edgeStyle=orthogonalEdgeStyle;rounded=0;html=1;jettySize=auto;orthogonalLoop=1;strokeWidth=4;endArrow=none;endFill=0;startArrow=none;" edge="1" parent="tNWg404wOYZjIx01e15U-1">
          <mxGeometry x="181.75" y="79" as="geometry">
            <mxPoint x="140" y="620" as="sourcePoint" />
            <mxPoint x="140" y="1030" as="targetPoint" />
            <Array as="points">
              <mxPoint x="140" y="139" />
              <mxPoint x="140" y="139" />
            </Array>
          </mxGeometry>
        </mxCell>
      </root>
    </mxGraphModel>
  </diagram>
</mxfile>
